<svg width="56" height="56" viewBox="0 0 56 56" fill="none" xmlns="http://www.w3.org/2000/svg">
<rect width="56" height="56" rx="14" fill="#F9BEAD"/>
<mask id="mask0_408_2582" style="mask-type:alpha" maskUnits="userSpaceOnUse" x="0" y="0" width="56" height="56">
<rect width="56" height="56" rx="14" fill="white"/>
</mask>
<g mask="url(#mask0_408_2582)">
<path fill-rule="evenodd" clip-rule="evenodd" d="M61 32.3397H60.9733C61 34.0242 60.6964 35.8232 59.966 37.7503C53.5549 54.6623 30.5148 55.262 28.1559 40.2509C25.797 25.2422 16.2712 32.4965 14.1588 25.2422C14.0165 24.7496 13.9746 24.2034 14.0254 23.6311H14L14.0241 18.6648C14.2934 15.5272 17.6965 11.5075 26.8831 10.2597C39.6175 8.52796 60.8692 15.5433 60.9733 28.7045L61 32.3397Z" fill="#D14937"/>
<mask id="mask1_408_2582" style="mask-type:alpha" maskUnits="userSpaceOnUse" x="14" y="8" width="47" height="36">
<path fill-rule="evenodd" clip-rule="evenodd" d="M14 8.01364H60.9986V43.9999H14V8.01364Z" fill="white"/>
</mask>
<g mask="url(#mask1_408_2582)">
<path fill-rule="evenodd" clip-rule="evenodd" d="M26.8894 8.31243C41.2256 6.36843 66.3833 13.9036 59.9723 30.7789C53.5612 47.6542 30.5211 48.2526 28.1622 33.2741C25.8033 18.2981 16.2775 25.5366 14.1651 18.2981C13.2378 15.1214 16.0362 9.78595 26.8894 8.31243Z" fill="#ED7161"/>
</g>
<path fill-rule="evenodd" clip-rule="evenodd" d="M44.2225 41C44.0682 41 43.9102 40.9708 43.7571 40.9087C43.1336 40.6544 42.836 39.9472 43.0916 39.3277L51.6476 18.7494C51.9057 18.1311 52.6181 17.8378 53.2428 18.0909C53.8675 18.3465 54.1638 19.0536 53.9082 19.6719L45.3534 40.2503C45.1584 40.7189 44.7028 41 44.2225 41Z" fill="#D14937"/>
<path fill-rule="evenodd" clip-rule="evenodd" d="M35.2232 38C35.0676 38 34.9108 37.972 34.7577 37.9087C34.133 37.6544 33.8355 36.9472 34.0923 36.329L42.647 15.7494C42.905 15.1311 43.6174 14.8378 44.2433 15.0909C44.868 15.3465 45.1643 16.0536 44.9075 16.6719L36.3529 37.2503C36.159 37.7189 35.7022 38 35.2232 38Z" fill="#D14937"/>
<path fill-rule="evenodd" clip-rule="evenodd" d="M30.1419 29C29.9837 29 29.8232 28.9654 29.6697 28.8899C29.0947 28.609 28.8418 27.8789 29.1028 27.2602L34.8167 13.722C35.0765 13.1046 35.7484 12.8286 36.3303 13.1108C36.9053 13.3929 37.1582 14.1229 36.8972 14.7416L31.1833 28.2786C30.9916 28.7315 30.5771 29 30.1419 29Z" fill="#D14937"/>
<path fill-rule="evenodd" clip-rule="evenodd" d="M23.3987 21C23.1894 21 22.9758 20.9585 22.7736 20.8693C22.0821 20.5589 21.8022 19.8098 22.1486 19.1915L26.347 11.691C26.6949 11.0739 27.5335 10.8238 28.2264 11.1318C28.9179 11.4409 29.1978 12.1912 28.8514 12.8083L24.653 20.3088C24.4055 20.7474 23.9134 21 23.3987 21Z" fill="#D14937"/>
</g>
</svg>
