<svg width="56" height="56" viewBox="0 0 56 56" fill="none" xmlns="http://www.w3.org/2000/svg">
<rect width="56" height="56" rx="14" fill="#CDB9FF"/>
<mask id="mask0_1198_4065" style="mask-type:alpha" maskUnits="userSpaceOnUse" x="0" y="0" width="56" height="56">
<rect width="56" height="56" rx="14" fill="white"/>
</mask>
<g mask="url(#mask0_1198_4065)">
<rect x="27.9771" y="16.0912" width="0.950979" height="27.4078" fill="#A00808"/>
<rect x="27.9771" y="16.0912" width="0.342638" height="27.4078" fill="#FF0606"/>
<path d="M33.7127 31.7708L33.5915 33.7725L33.3321 38.0533L32.7319 47.9478H23.5705L22.9704 38.0533L22.7091 33.7725L22.5879 31.7708H33.7127Z" fill="#4D9134"/>
<path d="M33.7127 31.7708L33.5915 33.7725L33.3321 38.0533H22.9704L22.7091 33.7725L22.5879 31.7708H33.7127Z" fill="#92CC76"/>
<path d="M22.709 33.7723H33.5914L33.332 38.0531H22.9703L22.709 33.7723Z" fill="#60A842"/>
<g style="mix-blend-mode:multiply" opacity="0.46">
<path d="M29.7313 31.7708L29.6059 33.7725L29.3371 38.0533L28.7153 47.9478H32.6966L33.3184 38.0533L33.5872 33.7725L33.7128 31.7708H29.7313Z" fill="#4D9134"/>
</g>
<g style="mix-blend-mode:screen">
<ellipse cx="26.6986" cy="39.5426" rx="2.75915" ry="7.26247" fill="#6F5C93"/>
</g>
<path d="M34.7048 29.8967C34.7048 29.9188 34.7029 29.9393 34.7029 29.9614H21.9369C21.9369 29.9393 21.9351 29.9188 21.9351 29.8967C21.9351 27.7382 23.1337 25.8438 24.9344 24.7767H31.7058C33.5061 25.8438 34.7048 27.7382 34.7048 29.8967Z" fill="#AF7792"/>
<path d="M31.735 29.8967C31.735 29.9188 31.7338 29.9393 31.7338 29.9614H23.4211C23.4211 29.9393 23.4199 29.9188 23.4199 29.8967C23.4199 27.7382 24.2003 25.8438 25.3731 24.7767H29.7825C30.9544 25.8438 31.735 27.7382 31.735 29.8967Z" fill="#DD92B9"/>
<path d="M35.3485 30.3529V31.1461H20.9121V30.3529C20.9273 30.0865 21.155 29.8826 21.4214 29.8967H34.8411C35.107 29.8833 35.3337 30.0871 35.3485 30.3529Z" fill="#D887B1"/>
<rect x="20.0312" y="30.6916" width="15.8909" height="0.454468" fill="#AF7792"/>
<g opacity="0.5">
<rect x="27.9766" y="24.7767" width="0.950468" height="6.36936" fill="#A00808"/>
<rect x="27.9766" y="24.7767" width="0.342809" height="6.36936" fill="#FF0606"/>
</g>
<rect x="21.9341" y="31.1464" width="12.5561" height="0.625021" fill="black"/>
<path d="M56.7154 32.9966L56.5942 34.9741L56.3348 39.2027L55.7346 48.977H46.5735L45.9733 39.2027L45.712 34.9741L45.5908 32.9966H56.7154Z" fill="#4C251B"/>
<path d="M56.7151 32.9966L56.5939 34.9741L56.3345 39.2027H45.9728L45.7115 34.9741L45.5903 32.9966H56.7151Z" fill="#965C45"/>
<path d="M45.7114 34.974H56.5938L56.3344 39.2026H45.9727L45.7114 34.974Z" fill="#7C4431"/>
<path opacity="0.6" d="M52.7339 32.9966L52.6083 34.9741L52.3396 39.2027L51.7178 48.977H55.7348L56.335 39.2027L56.5944 34.9741L56.7156 32.9966H52.7339Z" fill="#352351"/>
<rect x="44.937" y="32.3799" width="12.5561" height="0.617416" fill="black"/>
<path fill-rule="evenodd" clip-rule="evenodd" d="M52.6407 41.818V42.334C53.2497 42.3391 53.7234 42.5909 53.7237 42.9123C53.7237 43.2368 53.2398 43.491 52.6218 43.491C52.5949 43.491 52.5689 43.4896 52.543 43.4881C52.5357 43.4877 52.5284 43.4873 52.5212 43.487C52.2648 44.1329 51.6342 44.5579 50.9319 44.5582C49.9885 44.558 49.2237 43.8025 49.2236 42.8706V41.818H52.6407ZM52.5892 43.3685C52.6001 43.3692 52.611 43.3698 52.6221 43.3698C53.153 43.3698 53.6015 43.1603 53.6015 42.9123C53.6015 42.6671 53.1634 42.46 52.6407 42.4551V42.8706C52.6408 43.039 52.6153 43.2065 52.5651 43.3674C52.5732 43.3676 52.5812 43.3681 52.5892 43.3685Z" fill="#FFD9D4"/>
<path d="M51.9088 39.7858C51.8007 38.9981 51.3321 39.0183 51.3321 39.0183C51.3321 39.0183 51.6695 39.9767 51.1992 40.3511C50.7289 40.7256 51.0885 41.0782 51.0885 41.0782C50.9879 40.7244 52.017 40.5727 51.9088 39.7858Z" fill="#FFD9D4"/>
<path d="M50.9318 41.5422C50.9318 41.5422 50.2278 40.1991 50.7083 39.8356C50.7083 39.8356 50.0444 39.9469 50.1871 40.5223C50.3297 41.0977 50.9318 41.5422 50.9318 41.5422Z" fill="#FFD9D4"/>
<g style="mix-blend-mode:screen" opacity="0.53">
<path d="M52.4607 40.674C52.4607 44.636 51.2253 47.8481 49.7015 47.8481C48.1778 47.8481 46.9424 44.6366 46.9424 40.674C46.9424 36.7114 48.1776 33.5 49.7015 33.5C51.2254 33.5 52.4607 36.7119 52.4607 40.674Z" fill="#6F5C93"/>
</g>
<path d="M45.0255 30.157C44.9667 30.4833 44.9369 30.814 44.9365 31.1454C44.9365 31.1672 44.9384 31.1874 44.9384 31.2093H57.7044C57.7044 31.1874 57.7062 31.1672 57.7062 31.1454C57.7053 30.8139 57.6749 30.4832 57.6155 30.157L45.0255 30.157Z" fill="#E5CE6C"/>
<path d="M58.3511 31.596V32.3795H43.9146V31.596C43.9297 31.3329 44.1574 31.1314 44.4238 31.1454H57.8436C58.1094 31.1321 58.3362 31.3334 58.3511 31.596Z" fill="#F4DC78"/>
<rect x="43.0342" y="31.9306" width="15.8909" height="0.448938" fill="#E5CE6C"/>
<g style="mix-blend-mode:screen">
<path d="M51.993 30.65C51.993 30.8298 50.5341 30.9752 48.7345 30.9752C46.9348 30.9752 45.4761 30.8298 45.4761 30.65C45.4761 30.4703 46.935 30.3252 48.7345 30.3252C50.5339 30.3252 51.993 30.4708 51.993 30.65Z" fill="#F4DC78"/>
</g>
<g style="mix-blend-mode:screen">
<path d="M47.9023 31.4859C47.9023 31.6385 47.0861 31.7624 46.0793 31.7624C45.0725 31.7624 44.2563 31.6385 44.2563 31.4859C44.2563 31.3332 45.0725 31.2093 46.0793 31.2093C47.0861 31.2093 47.9023 31.333 47.9023 31.4859Z" fill="#F4DC78"/>
</g>
<path d="M45.8217 25.4245C45.7492 24.8944 45.7215 24.3087 45.8873 24.0274C46.0975 23.7164 46.2776 23.3851 46.4252 23.0381C46.8255 21.9377 46.9909 20.7616 46.9101 19.5896C46.7785 18.1085 46.0191 16.7624 44.8344 15.9103C44.0927 15.363 43.61 14.5189 43.5053 13.586L43.0917 9.85583H38.8676L38.454 13.5853C38.3843 14.2119 37.8805 14.8459 37.3372 15.3611C35.6693 16.9405 34.7553 19.2364 35.1414 21.5343C35.2285 22.0464 35.3598 22.5495 35.5339 23.0376C35.6815 23.3845 35.8617 23.7159 36.0718 24.0268C36.2376 24.3082 36.2101 24.8946 36.1374 25.424C36.0711 25.9612 35.7299 26.4205 35.2434 26.6272C34.5275 26.9181 34.0571 27.6297 34.0571 28.4217V47.0423C34.0571 48.1074 34.8963 48.9709 35.9314 48.9709H46.0295C47.0646 48.9709 47.9038 48.1074 47.9038 47.0423V28.4223C47.9038 27.6302 47.4333 26.9186 46.7173 26.6277C46.2303 26.4214 45.8883 25.962 45.8217 25.4245Z" fill="#97F0FF"/>
<path d="M45.8217 25.4245C45.7492 24.8944 45.7215 24.3087 45.8873 24.0274C46.0975 23.7164 46.2776 23.3851 46.4252 23.0381C46.8255 21.9377 46.9909 20.7616 46.9101 19.5896C46.7785 18.1085 46.0191 16.7624 44.8344 15.9103C44.0927 15.363 43.61 14.5189 43.5053 13.586L43.0917 9.85583H38.8676L38.454 13.5853C38.3843 14.2119 37.8805 14.8459 37.3372 15.3611C35.6693 16.9405 34.7553 19.2364 35.1414 21.5343C35.2285 22.0464 35.3598 22.5495 35.5339 23.0376C35.6815 23.3845 35.8617 23.7159 36.0718 24.0268C36.2376 24.3082 36.2101 24.8946 36.1374 25.424C36.0711 25.9612 35.7299 26.4205 35.2434 26.6272C34.5275 26.9181 34.0571 27.6297 34.0571 28.4217V47.0423C34.0571 48.1074 34.8963 48.9709 35.9314 48.9709H46.0295C47.0646 48.9709 47.9038 48.1074 47.9038 47.0423V28.4223C47.9038 27.6302 47.4333 26.9186 46.7173 26.6277C46.2303 26.4214 45.8883 25.962 45.8217 25.4245Z" fill="#97F0FF"/>
<path d="M47.9022 28.4231V47.0435C47.902 48.1084 47.0631 48.9715 46.0282 48.9717H35.9312C34.8959 48.9717 34.0565 48.1087 34.0557 47.0435V28.4231C34.0556 27.6307 34.5266 26.9189 35.2431 26.6284C35.7299 26.4216 36.0712 25.9617 36.1371 25.4241C36.2096 24.8946 36.2383 24.308 36.0713 24.0268C35.8615 23.7156 35.6813 23.3844 35.5333 23.0376C35.36 22.5494 35.2291 22.0464 35.1419 21.5344C34.7658 19.2956 35.6189 17.062 37.2062 15.488H44.3673C44.5095 15.6434 44.6658 15.7845 44.834 15.9096C46.0191 16.7614 46.7788 18.1076 46.9104 19.5889C46.9916 20.7611 46.8258 21.9374 46.4244 23.0376C46.2771 23.3847 46.0969 23.7161 45.8863 24.0268C45.721 24.308 45.7482 24.8946 45.8224 25.4241C45.8882 25.9618 46.2295 26.4217 46.7164 26.6284C47.4325 26.9191 47.9029 27.631 47.9022 28.4231Z" fill="#FF6700"/>
<g style="mix-blend-mode:screen">
<path d="M37.8456 17.1539C37.8456 17.4353 37.6239 17.6633 37.3505 17.6633C37.0771 17.6633 36.8555 17.4353 36.8555 17.1539C36.8555 16.8726 37.0771 16.6446 37.3505 16.6446C37.6239 16.6446 37.8456 16.8726 37.8456 17.1539Z" fill="#93E5A9"/>
</g>
<g style="mix-blend-mode:screen">
<path d="M38.2785 18.9787C38.2786 19.0688 38.2259 19.15 38.145 19.1846C38.0641 19.2191 37.971 19.2 37.9091 19.1363C37.8472 19.0726 37.8287 18.9768 37.8622 18.8936C37.8958 18.8104 37.9747 18.7561 38.0623 18.7562C38.1817 18.7562 38.2785 18.8558 38.2785 18.9787Z" fill="#93E5A9"/>
</g>
<g style="mix-blend-mode:screen">
<path d="M40.3695 17.7149C40.3695 17.8747 40.2436 18.0042 40.0883 18.0042C39.933 18.0042 39.8071 17.8747 39.8071 17.7149C39.8071 17.5551 39.933 17.4256 40.0883 17.4256C40.1629 17.4255 40.2344 17.456 40.2872 17.5103C40.3399 17.5645 40.3695 17.6381 40.3695 17.7149Z" fill="#93E5A9"/>
</g>
<g style="mix-blend-mode:screen">
<path d="M37.2953 45.136C37.2952 45.4173 37.0736 45.6453 36.8002 45.6452C36.5268 45.6452 36.3052 45.4172 36.3052 45.1359C36.3051 44.8546 36.5267 44.6266 36.8001 44.6265C36.9314 44.6264 37.0575 44.68 37.1503 44.7756C37.2432 44.8712 37.2954 45.0008 37.2953 45.136Z" fill="#93E5A9"/>
</g>
<g style="mix-blend-mode:screen">
<path d="M37.7277 46.9606C37.7277 47.0507 37.675 47.1319 37.5941 47.1663C37.5132 47.2008 37.4201 47.1817 37.3583 47.118C37.2964 47.0543 37.2779 46.9585 37.3114 46.8753C37.345 46.7921 37.424 46.7378 37.5115 46.7379C37.631 46.738 37.7277 46.8377 37.7277 46.9606Z" fill="#93E5A9"/>
</g>
<g style="mix-blend-mode:screen">
<path d="M39.8192 45.6966C39.8193 45.8136 39.7508 45.9192 39.6457 45.964C39.5406 46.0088 39.4196 45.9841 39.3392 45.9013C39.2588 45.8186 39.2347 45.6941 39.2783 45.586C39.3218 45.4778 39.4244 45.4074 39.5382 45.4074C39.6127 45.4074 39.6842 45.4379 39.7369 45.4921C39.7896 45.5464 39.8192 45.6199 39.8192 45.6966Z" fill="#93E5A9"/>
</g>
<g style="mix-blend-mode:screen">
<path d="M39.0521 46.1917C39.052 46.473 38.8304 46.701 38.557 46.701C38.2836 46.7009 38.062 46.4728 38.062 46.1915C38.062 45.9102 38.2837 45.6822 38.5571 45.6822C38.6884 45.6822 38.8143 45.7359 38.9072 45.8314C39 45.927 39.0522 46.0566 39.0521 46.1917Z" fill="#93E5A9"/>
</g>
<g style="mix-blend-mode:screen">
<path d="M39.4851 48.0163C39.4851 48.1064 39.4324 48.1877 39.3516 48.2222C39.2707 48.2567 39.1776 48.2376 39.1156 48.1739C39.0537 48.1102 39.0352 48.0144 39.0688 47.9312C39.1023 47.848 39.1813 47.7938 39.2688 47.7938C39.3882 47.7939 39.485 47.8935 39.4851 48.0163Z" fill="#93E5A9"/>
</g>
<g style="mix-blend-mode:screen">
<path d="M41.576 46.7525C41.576 46.9123 41.4501 47.0418 41.2949 47.0418C41.1396 47.0418 41.0137 46.9123 41.0137 46.7525C41.0137 46.5927 41.1396 46.4632 41.2949 46.4632C41.3694 46.4631 41.441 46.4936 41.4937 46.5479C41.5465 46.6021 41.5761 46.6757 41.576 46.7525Z" fill="#93E5A9"/>
</g>
<rect x="34.0557" y="29.1918" width="13.8465" height="13.8426" fill="#FF9100"/>
<rect x="35.1123" y="29.9938" width="11.8219" height="1.21488" fill="white"/>
<rect x="35.1123" y="41.0335" width="11.8219" height="0.993421" fill="white"/>
<g style="mix-blend-mode:multiply" opacity="0.49">
<path d="M46.7166 26.6277C46.2302 26.421 45.8889 25.9616 45.8226 25.4245C45.7501 24.8944 45.7224 24.3085 45.8882 24.0274C46.0984 23.7164 46.2786 23.3851 46.4261 23.0381C46.8265 21.9378 46.9919 20.7616 46.9111 19.5896C46.7794 18.1085 46.02 16.7624 44.8353 15.9103C44.0936 15.363 43.6109 14.5189 43.5062 13.586L43.0918 9.85583H40.8369L41.2507 13.5853C41.3554 14.5182 41.838 15.3622 42.5797 15.9096C43.7644 16.7617 44.5239 18.1078 44.6555 19.5889C44.7363 20.7609 44.5709 21.937 44.1706 23.0374C44.023 23.3844 43.8429 23.7157 43.6327 24.0267C43.4669 24.3078 43.4944 24.8944 43.5671 25.4238C43.6336 25.9612 43.9753 26.4206 44.4621 26.627C45.178 26.9179 45.6484 27.6295 45.6484 28.4216V47.0421C45.6484 48.1072 44.8092 48.9707 43.774 48.9707H46.0287C47.0639 48.9707 47.903 48.1072 47.903 47.0421V28.4223C47.903 27.6302 47.4326 26.9186 46.7166 26.6277Z" fill="#4B6568"/>
</g>
<path d="M43.7529 7.3381V9.85619H38.0854V7.3381C38.0854 7.17697 38.2124 7.04636 38.369 7.04636H43.4697C43.6262 7.04655 43.7529 7.17711 43.7529 7.3381Z" fill="#FF9100"/>
<g style="mix-blend-mode:multiply" opacity="0.49">
<path d="M40.8369 7.04617H43.4696C43.6263 7.04617 43.7533 7.17687 43.7533 7.33809V9.85583H40.8369V7.04617Z" fill="#4B6568"/>
</g>
<rect x="38.0854" y="9.85583" width="5.66764" height="0.730141" fill="#CE410B"/>
<g style="mix-blend-mode:screen" opacity="0.26">
<path d="M40.4955 9.42074C40.4958 9.56628 40.4874 9.7117 40.4703 9.85619H38.399C38.3819 9.71171 38.3734 9.56629 38.3735 9.42074C38.3735 8.29091 38.8494 7.37454 39.4345 7.37454C40.0196 7.37454 40.4955 8.29091 40.4955 9.42074Z" fill="#FFACA1"/>
</g>
<g style="mix-blend-mode:screen" opacity="0.22">
<path d="M42.1267 19.7772C42.1267 21.2262 40.8335 22.4008 39.2382 22.4008C37.6428 22.4008 36.3496 21.2262 36.3496 19.7772C36.3496 18.3282 37.643 17.1539 39.2382 17.1539C40.8333 17.1539 42.1267 18.3285 42.1267 19.7772Z" fill="#97F0FF"/>
</g>
<path d="M44.0245 36.1131C44.0245 37.7512 43.0655 39.228 41.5946 39.8548C40.1237 40.4816 38.4307 40.135 37.3051 38.9766C36.1794 37.8182 35.8428 36.0761 36.4523 34.5628C37.0617 33.0495 38.4971 32.063 40.0892 32.0632C42.2627 32.0635 44.0246 33.8767 44.0245 36.1131Z" fill="#E02020"/>
<path d="M14.4988 31.6281C14.2502 32.2283 14.1213 32.8802 14.1211 33.5399V47.3431C14.1211 48.1767 14.7349 48.8524 15.4921 48.8524H22.5888C23.346 48.8524 23.9598 48.1767 23.9598 47.3431V33.5399C23.9595 32.8802 23.8307 32.2283 23.5821 31.6281H14.4988Z" fill="#7F1CA0"/>
<path d="M14.4988 31.6281C14.2502 32.2283 14.1213 32.8802 14.1211 33.5399V47.3431C14.1211 48.1767 14.7349 48.8524 15.4921 48.8524H22.5888C23.346 48.8524 23.9598 48.1767 23.9598 47.3431V33.5399C23.9595 32.8802 23.8307 32.2283 23.5821 31.6281H14.4988Z" fill="#7F1CA0"/>
<path d="M23.9608 33.5395V47.3438C23.9602 48.1771 23.3468 48.8526 22.5898 48.8531H15.493C14.7359 48.8531 14.1221 48.1774 14.1221 47.3438V33.5395C14.1223 32.8802 14.2509 32.2287 14.4993 31.6288H23.5817C23.8307 32.2286 23.96 32.8801 23.9608 33.5395Z" fill="#FFAD1D"/>
<path d="M23.5821 31.6281H19.0162C19.2648 32.2283 19.3937 32.8802 19.3939 33.5399V47.3431C19.3939 48.1767 18.7801 48.8524 18.0229 48.8524H22.5896C23.3467 48.8524 23.9605 48.1767 23.9605 47.3431V33.5399C23.96 32.8802 23.831 32.2283 23.5821 31.6281Z" fill="#E86605"/>
<path d="M16.0029 47.3431V33.5399C16.0031 32.8802 16.1319 32.2283 16.3806 31.6281H14.4988C14.2502 32.2283 14.1213 32.8802 14.1211 33.5399V47.3431C14.1211 48.1767 14.7349 48.8524 15.4921 48.8524H17.3738C16.6167 48.8524 16.0029 48.1767 16.0029 47.3431Z" fill="#FC8C38"/>
<path d="M18.8283 33.7645C17.3824 33.8018 14.8445 34.5991 14.7251 35.0531C14.8443 35.5073 17.3824 36.3048 18.8283 36.3421C20.2743 36.3046 22.8122 35.5075 22.9317 35.0531C22.8124 34.5991 20.2743 33.8018 18.8283 33.7645Z" fill="#3C17AD"/>
<rect x="14.1221" y="44.6181" width="9.83871" height="1.71533" fill="#3C17AD"/>
<g style="mix-blend-mode:multiply" opacity="0.13">
<path d="M23.9607 33.5395V47.3438C23.9602 48.1771 23.3467 48.8526 22.5898 48.8531H19.688C20.449 48.8571 21.069 48.1816 21.0735 47.3438V33.5395C21.0724 32.8798 20.942 32.228 20.6912 31.6288H23.5817C23.8307 32.2286 23.9599 32.8801 23.9607 33.5395Z" fill="#631384"/>
</g>
<path d="M23.5819 31.6281H14.498C14.498 31.1868 14.823 30.8291 15.2239 30.8291H22.8561C23.257 30.8291 23.5819 31.1868 23.5819 31.6281Z" fill="#6D6072"/>
<path d="M16.0502 30.0597H17.8728C18.0396 30.0597 18.1996 30.1326 18.3176 30.2625C18.4355 30.3924 18.5018 30.5685 18.5018 30.7522V30.8287H15.4512V30.7192C15.4512 30.3549 15.7194 30.0597 16.0502 30.0597Z" fill="#514756"/>
<g style="mix-blend-mode:screen">
<ellipse cx="16.6055" cy="31.2924" rx="1.6079" ry="0.199766" fill="#6D6072"/>
</g>
<path d="M20.7285 42.6501L17.6892 36.9228C16.2749 37.8578 15.8067 39.8712 16.6389 41.4394C17.4711 43.0076 19.2942 43.5473 20.7285 42.6501Z" fill="#FFB024"/>
<path d="M18.4676 42.2088L18.8547 40.1032L17.2334 41.1203C17.5165 41.6309 17.9532 42.016 18.4676 42.2088Z" fill="#FF350D"/>
<path d="M19.1649 40.2666L18.79 42.304C19.2445 42.4022 19.7152 42.3503 20.1429 42.1547L19.1649 40.2666Z" fill="#FF350D"/>
<path d="M18.7381 39.7543C18.1033 39.5004 17.5446 39.2859 16.9688 39.1072C16.8316 39.667 16.8714 40.2615 17.0817 40.7931L18.7381 39.7543Z" fill="#FF350D"/>
<path d="M17.0767 38.7596C17.6057 38.9243 18.1189 39.1182 18.6873 39.3439L17.8325 37.6934C17.4994 37.9691 17.2386 38.3369 17.0767 38.7596Z" fill="#FF350D"/>
<path d="M21.4898 38.6038L17.5088 43.583C18.7597 44.7726 20.6475 44.6304 21.7397 43.2645C22.8318 41.8985 22.7203 39.8188 21.4898 38.6038Z" fill="#FFF27D"/>
<path d="M21.8214 41.1061L19.8838 41.3634L21.2709 42.7374C21.6219 42.2812 21.8166 41.704 21.8214 41.1061V41.1061Z" fill="#FF350D"/>
<path d="M19.9272 40.9882L21.8022 40.7396C21.7438 40.2336 21.5507 39.7578 21.2472 39.3723L19.9272 40.9882Z" fill="#FF350D"/>
<path d="M19.6199 41.5953C19.6008 42.3386 19.5918 42.9901 19.6199 43.6478C20.1456 43.6145 20.6454 43.3854 21.0373 42.9983L19.6199 41.5953Z" fill="#FF350D"/>
<path d="M19.2853 43.6446C19.2608 43.0398 19.2665 42.4427 19.2821 41.7775L18.1279 43.1901C18.4705 43.4515 18.8699 43.6083 19.2853 43.6446Z" fill="#FF350D"/>
<g style="mix-blend-mode:screen" opacity="0.43">
<path d="M20.6612 40.4608C20.6612 44.8546 19.2518 48.416 17.5133 48.416C15.7748 48.416 14.3652 44.8543 14.3652 40.4608C14.3652 36.0674 15.7748 32.5057 17.5133 32.5057C19.2518 32.5057 20.6612 36.0674 20.6612 40.4608Z" fill="#E0E075"/>
</g>
</g>
</svg>
