<svg width="24" height="24" viewBox="0 0 24 24" fill="none" xmlns="http://www.w3.org/2000/svg">
<path d="M18.4956 6.0699L22.2824 2.28316C22.2912 2.28716 22.3008 2.28876 22.3096 2.29276C22.3572 2.31436 22.4072 2.32916 22.458 2.34436C22.4876 2.35316 22.516 2.36516 22.5464 2.37196C22.6284 2.38956 22.7128 2.39996 22.8 2.39996C23.4616 2.39996 24 1.86157 24 1.19998C24 0.538391 23.4616 0 22.8 0C22.1384 0 21.6 0.538391 21.6 1.19998C21.6 1.38478 21.6452 1.55757 21.7204 1.71397L17.9304 5.50391C16.4568 4.15753 14.5256 3.30554 12.4004 3.20995V2.32596C12.8644 2.16076 13.2 1.72077 13.2 1.19998C13.2 0.538391 12.6616 0 12 0C11.3384 0 10.8 0.538391 10.8 1.19998C10.8 1.72077 11.1356 2.16076 11.6 2.32636V3.21035C9.4748 3.30594 7.5432 4.15833 6.07 5.50431L2.2796 1.71397C2.3548 1.55757 2.4 1.38478 2.4 1.19998C2.4 0.538391 1.8616 0 1.2 0C0.5384 0 0 0.538391 0 1.19998C0 1.86157 0.5384 2.39996 1.2 2.39996C1.2872 2.39996 1.3716 2.38956 1.4536 2.37196C1.484 2.36516 1.5124 2.35316 1.542 2.34436C1.5924 2.32916 1.6428 2.31396 1.6904 2.29276C1.6992 2.28876 1.7088 2.28756 1.7176 2.28316L5.5044 6.0699C4.158 7.54347 3.306 9.47464 3.2104 11.5998H2.3264C2.1608 11.1354 1.7208 10.7998 1.2 10.7998C0.5384 10.7998 0 11.3382 0 11.9998C0 12.6614 0.5384 13.1998 1.2 13.1998C1.7208 13.1998 2.1608 12.8642 2.3264 12.3998H3.2104C3.306 14.525 4.1584 16.4565 5.5044 17.9297L1.7176 21.7164C1.7088 21.7124 1.6992 21.7108 1.6904 21.7068C1.6428 21.6852 1.5924 21.67 1.5416 21.6548C1.512 21.646 1.484 21.634 1.4536 21.6276C1.3716 21.61 1.2872 21.5996 1.2 21.5996C0.5384 21.5996 0 22.138 0 22.7996C0 23.4612 0.5384 23.9996 1.2 23.9996C1.8616 23.9996 2.4 23.4612 2.4 22.7996C2.4 22.6148 2.3548 22.442 2.2796 22.2856L6.07 18.4957C7.5436 19.8421 9.4748 20.6941 11.6 20.7897V21.6736C11.1356 21.8392 10.8 22.2792 10.8 22.8C10.8 23.4616 11.3384 24 12 24C12.6616 24 13.2 23.4616 13.2 22.8C13.2 22.2792 12.8644 21.8392 12.4 21.6736V20.7897C14.5252 20.6941 16.4564 19.8417 17.93 18.4957L21.7204 22.2856C21.6456 22.442 21.6 22.6148 21.6 22.7996C21.6 23.4612 22.1384 23.9996 22.8 23.9996C23.4616 23.9996 24 23.4612 24 22.7996C24 22.138 23.4616 21.5996 22.8 21.5996C22.7128 21.5996 22.6284 21.61 22.5464 21.6276C22.516 21.634 22.488 21.6464 22.4584 21.6548C22.4076 21.67 22.3572 21.6852 22.3096 21.7064C22.3008 21.7104 22.2912 21.7116 22.2824 21.716L18.4956 17.9293C19.842 16.4557 20.694 14.5246 20.7896 12.3994H21.6736C21.8392 12.8638 22.2792 13.1994 22.8 13.1994C23.4616 13.1994 24 12.661 24 11.9994C24 11.3378 23.4616 10.7994 22.8 10.7994C22.2792 10.7994 21.8392 11.135 21.6736 11.5994H20.7896C20.6944 9.47464 19.842 7.54307 18.4956 6.0699ZM19.9796 11.5998H17.7656L15.8828 9.71704C15.808 9.64184 15.706 9.59984 15.6 9.59984H14.9656L17.9236 6.64189C19.1252 7.96907 19.8848 9.69624 19.9796 11.5998ZM15.2 15.5997C14.7588 15.5997 14.4 15.2409 14.4 14.7998C14.4 14.427 14.6576 14.115 15.004 14.027C15.006 14.0266 15.0076 14.027 15.0092 14.0262C15.0752 14.0098 15.1288 14.0034 15.1796 14.0018C15.1864 14.0018 15.1932 13.9998 15.2 13.9998C15.6412 13.9998 16 14.3586 16 14.7998C16 14.8638 15.9904 14.9258 15.9756 14.9861C15.9716 15.0021 15.966 15.0169 15.9612 15.0325C15.9468 15.0789 15.9288 15.1245 15.906 15.1673C15.8996 15.1789 15.8936 15.1909 15.8868 15.2025C15.8208 15.3129 15.7288 15.4093 15.6128 15.4801C15.612 15.4805 15.6112 15.4817 15.6104 15.4825C15.4904 15.5553 15.3508 15.5997 15.2 15.5997ZM16.7496 14.3998C16.7352 14.3442 16.7132 14.2918 16.6932 14.2382C16.684 14.2142 16.678 14.189 16.6676 14.1654C16.6292 14.077 16.5836 13.9926 16.5304 13.9134C16.5188 13.8962 16.5044 13.8814 16.492 13.8646C16.448 13.8042 16.4012 13.7458 16.3496 13.6922C16.3264 13.6682 16.3008 13.6466 16.276 13.6242C16.23 13.5822 16.1828 13.5422 16.132 13.5054C16.1024 13.4842 16.0724 13.4646 16.0412 13.4454C15.9896 13.413 15.936 13.3842 15.8804 13.3582C15.8476 13.3426 15.8152 13.327 15.7812 13.3138C15.72 13.2898 15.6564 13.2714 15.5916 13.255C15.5608 13.247 15.5312 13.237 15.4996 13.231C15.4024 13.2114 15.3028 13.1998 15.2 13.1998C15.1996 13.1998 15.1992 13.1998 15.1988 13.1998C15.1272 13.1998 15.054 13.2074 14.9792 13.2186C14.9528 13.2222 14.9264 13.225 14.9004 13.2302C14.8756 13.235 14.8524 13.2422 14.828 13.2482C14.824 13.249 14.8208 13.2494 14.8168 13.2502C14.814 13.251 14.8116 13.2534 14.8088 13.2542H14.8084C14.7436 13.2706 14.68 13.289 14.6188 13.313C14.5848 13.3262 14.5524 13.3418 14.5196 13.3574C14.464 13.3838 14.4108 13.4126 14.3588 13.4446C14.328 13.4638 14.2976 13.4834 14.268 13.5046C14.2172 13.541 14.17 13.5814 14.124 13.6234C14.0992 13.6462 14.0736 13.6674 14.0504 13.6914C13.9984 13.745 13.952 13.8034 13.908 13.8638C13.8956 13.8806 13.8812 13.8954 13.8696 13.9126C13.8164 13.9918 13.7708 14.0762 13.7324 14.1646C13.722 14.1882 13.716 14.2134 13.7068 14.2374C13.6868 14.2906 13.6648 14.343 13.6504 14.399H10.3492C10.3348 14.3434 10.3128 14.291 10.2928 14.2374C10.2836 14.2134 10.2776 14.1882 10.2672 14.1646C10.2376 14.0962 10.2012 14.0318 10.1628 13.9686C10.1628 13.9686 10.1628 13.9686 10.1628 13.9682C10.1516 13.9498 10.1424 13.9302 10.1304 13.9126C10.1188 13.8954 10.1044 13.8806 10.092 13.8638C10.048 13.8034 10.0012 13.745 9.9496 13.6914C9.9264 13.6674 9.9008 13.6458 9.876 13.6234C9.83 13.5814 9.7828 13.5414 9.732 13.5046C9.7024 13.4834 9.6724 13.4638 9.6412 13.4446C9.5896 13.4122 9.536 13.3834 9.4804 13.3574C9.4476 13.3418 9.4152 13.3262 9.3812 13.313C9.32 13.289 9.2564 13.2706 9.1916 13.2542H9.1912C9.1884 13.2534 9.186 13.251 9.1832 13.2502C9.1792 13.2494 9.1756 13.249 9.1716 13.2478C9.1476 13.2418 9.124 13.2346 9.0996 13.2302C9.0752 13.2254 9.05 13.2226 9.0252 13.219C8.944 13.2054 8.8652 13.1966 8.8 13.1998C8.6972 13.1998 8.5976 13.2114 8.5 13.2302C8.4684 13.2362 8.4388 13.2462 8.408 13.2542C8.3432 13.2706 8.2796 13.289 8.2184 13.313C8.1844 13.3262 8.152 13.3418 8.1192 13.3574C8.0636 13.3838 8.0104 13.4126 7.9584 13.4446C7.9276 13.4638 7.8972 13.4834 7.8676 13.5046C7.8168 13.541 7.7696 13.5814 7.7236 13.6234C7.6988 13.6462 7.6732 13.6674 7.65 13.6914C7.598 13.745 7.5516 13.8034 7.5076 13.8638C7.4952 13.8806 7.4808 13.8954 7.4692 13.9126C7.416 13.9918 7.3704 14.0762 7.332 14.1646C7.3216 14.1882 7.3156 14.2134 7.3064 14.2374C7.2864 14.2906 7.2644 14.343 7.25 14.399H6.8V12.399H13.2C13.4208 12.399 13.6 12.2202 13.6 11.999V10.399H14H15.4344L17.2 12.1654V14.3998H16.7496ZM8.3892 15.4825C8.3884 15.4817 8.388 15.4809 8.3868 15.4801C8.2708 15.4093 8.1792 15.3133 8.1128 15.2025C8.106 15.1909 8.1 15.1793 8.0936 15.1673C8.0708 15.1245 8.0528 15.0789 8.0384 15.0325C8.0336 15.0169 8.0276 15.0021 8.024 14.9861C8.0096 14.9258 8 14.8638 8 14.7998C8 14.3586 8.3588 13.9998 8.8 13.9998C8.8068 13.9998 8.8136 14.0018 8.8204 14.0018C8.8712 14.0038 8.9248 14.0102 8.9908 14.0262C8.9928 14.0266 8.9944 14.0266 8.996 14.027C9.0076 14.0298 9.0184 14.0342 9.0296 14.0374C9.032 14.0382 9.0336 14.0402 9.0364 14.041C9.0412 14.0426 9.046 14.0442 9.0512 14.0458C9.094 14.0602 9.1352 14.0778 9.1748 14.099C9.1784 14.101 9.182 14.1014 9.1856 14.103C9.1912 14.1062 9.1972 14.109 9.2028 14.1122C9.204 14.113 9.2044 14.1142 9.2056 14.115C9.3188 14.1838 9.4132 14.2766 9.4796 14.3846C9.48 14.385 9.4804 14.3858 9.4808 14.3862C9.4808 14.3866 9.4808 14.3866 9.4808 14.3866C9.482 14.3882 9.4836 14.3894 9.4844 14.391C9.556 14.511 9.6 14.6498 9.6 14.7998C9.6 15.2409 9.2412 15.5997 8.8 15.5997C8.6492 15.5997 8.5096 15.5553 8.3892 15.4825ZM12.8 8.39986V9.99983V11.5998H6.8V8.39986H8H12.8ZM22.8 0.799987C23.0204 0.799987 23.2 0.979184 23.2 1.19998C23.2 1.42078 23.0204 1.59997 22.8 1.59997C22.7452 1.59997 22.6928 1.58877 22.6452 1.56877C22.598 1.54877 22.5544 1.52037 22.5172 1.48278C22.4448 1.41038 22.4 1.31038 22.4 1.19998C22.4 0.979184 22.5796 0.799987 22.8 0.799987ZM17.358 6.0763L13.8344 9.59984H13.6V7.99987C13.6 7.77867 13.4208 7.59987 13.2 7.59987H12.4V4.02033C14.3036 4.11513 16.0308 4.87472 17.358 6.0763ZM12 0.799987C12.2204 0.799987 12.4 0.979184 12.4 1.19998C12.4 1.42078 12.2204 1.59997 12 1.59997C11.7796 1.59997 11.6 1.42078 11.6 1.19998C11.6 0.979184 11.7796 0.799987 12 0.799987ZM11.6 4.02033V7.59987H8.1656L6.642 6.0763C7.9692 4.87472 9.6964 4.11513 11.6 4.02033ZM0.8 1.19998C0.8 0.979184 0.9796 0.799987 1.2 0.799987C1.4204 0.799987 1.6 0.979184 1.6 1.19998C1.6 1.31038 1.5552 1.41038 1.4828 1.48278C1.4456 1.51997 1.402 1.54877 1.3548 1.56877C1.3072 1.58877 1.2548 1.59997 1.2 1.59997C0.9796 1.59997 0.8 1.42078 0.8 1.19998ZM6.0764 6.64189L7.0344 7.59987H6.4C6.1792 7.59987 6 7.77867 6 7.99987V11.5998H4.0204C4.1152 9.69624 4.8748 7.96907 6.0764 6.64189ZM1.2 12.3998C0.9796 12.3998 0.8 12.2206 0.8 11.9998C0.8 11.779 0.9796 11.5998 1.2 11.5998C1.4204 11.5998 1.6 11.779 1.6 11.9998C1.6 12.2206 1.4204 12.3998 1.2 12.3998ZM4.0204 12.3998H6V14.7998C6 15.0209 6.1792 15.1997 6.4 15.1997H7.2504C7.2576 15.2285 7.2732 15.2537 7.282 15.2817C7.3048 15.3533 7.33 15.4229 7.3624 15.4897C7.3804 15.5269 7.4004 15.5625 7.4212 15.5981C7.4612 15.6665 7.5056 15.7309 7.5548 15.7925C7.568 15.8089 7.5764 15.8281 7.59 15.8437L6.076 17.3577C4.8752 16.0305 4.1152 14.3038 4.0204 12.3998ZM1.2 23.1996C0.9796 23.1996 0.8 23.0204 0.8 22.7996C0.8 22.5788 0.9796 22.3996 1.2 22.3996C1.2548 22.3996 1.3072 22.4108 1.3548 22.4308C1.402 22.4508 1.4456 22.4792 1.4828 22.5168C1.5552 22.5892 1.6 22.6892 1.6 22.7996C1.6 23.0204 1.4204 23.1996 1.2 23.1996ZM6.642 17.9233L8.2644 16.3009C8.4328 16.3609 8.6112 16.3997 8.8 16.3997C9.5432 16.3997 10.1644 15.8881 10.3432 15.1997H11.6V19.9793C9.6964 19.8845 7.9692 19.1249 6.642 17.9233ZM12 23.1996C11.7796 23.1996 11.6 23.0204 11.6 22.7996C11.6 22.5788 11.7796 22.3996 12 22.3996C12.2204 22.3996 12.4 22.5788 12.4 22.7996C12.4 23.0204 12.2204 23.1996 12 23.1996ZM12.4 19.9793V15.1997H13.6568C13.8356 15.8881 14.4568 16.3997 15.2 16.3997C15.3888 16.3997 15.5672 16.3609 15.7352 16.3009L17.3576 17.9233C16.0308 19.1249 14.3036 19.8845 12.4 19.9793ZM23.2 22.7996C23.2 23.0204 23.0204 23.1996 22.8 23.1996C22.5796 23.1996 22.4 23.0204 22.4 22.7996C22.4 22.6892 22.4448 22.5892 22.5172 22.5168C22.5544 22.4796 22.598 22.4508 22.6452 22.4308C22.6928 22.4108 22.7452 22.3996 22.8 22.3996C23.0204 22.3996 23.2 22.5788 23.2 22.7996ZM17.9236 17.3577L16.4096 15.8437C16.4232 15.8281 16.4316 15.8085 16.4448 15.7925C16.494 15.7309 16.5384 15.6665 16.5784 15.5981C16.5992 15.5625 16.6192 15.5269 16.6372 15.4897C16.6696 15.4229 16.6948 15.3533 16.7176 15.2817C16.7264 15.2537 16.742 15.2281 16.7492 15.1997H17.6C17.8208 15.1997 18 15.0209 18 14.7998V12.3998H19.9796C19.8848 14.3038 19.1248 16.0305 17.9236 17.3577ZM22.8 11.5998C23.0204 11.5998 23.2 11.779 23.2 11.9998C23.2 12.2206 23.0204 12.3998 22.8 12.3998C22.5796 12.3998 22.4 12.2206 22.4 11.9998C22.4 11.779 22.5796 11.5998 22.8 11.5998Z" fill="#F62A34"/>
</svg>
