<svg width="24" height="24" viewBox="0 0 24 24" fill="none" xmlns="http://www.w3.org/2000/svg">
<path d="M1.08849 10.4878H3.10175C3.22083 10.9172 3.39236 11.3303 3.61293 11.7175L2.18797 13.1418C2.11993 13.2099 2.08165 13.3022 2.08165 13.3986C2.08165 13.495 2.11993 13.5873 2.18797 13.6553L3.72748 15.1952C3.86924 15.3367 4.09888 15.3367 4.24064 15.1952L5.66575 13.77C6.05289 13.9904 6.46555 14.1621 6.89494 14.281V16.2943C6.89494 16.4947 7.0574 16.6572 7.25784 16.6572H9.43526C9.63571 16.6572 9.79817 16.4947 9.79817 16.2943V14.281C10.2276 14.1621 10.6402 13.9904 11.0274 13.77L12.4525 15.1952C12.5965 15.3313 12.8217 15.3313 12.9656 15.1952L14.5054 13.6553C14.5735 13.5873 14.6117 13.495 14.6117 13.3986C14.6117 13.3022 14.5735 13.2099 14.5054 13.1418L13.0802 11.7175C13.3007 11.3303 13.4723 10.9172 13.5914 10.4878H15.6046C15.8051 10.4878 15.9675 10.3254 15.9675 10.1249V7.94751C15.9675 7.7472 15.8051 7.58461 15.6046 7.58461H13.5914C13.4723 7.15536 13.3007 6.74227 13.0802 6.35513L14.5051 4.93074C14.5732 4.86269 14.6115 4.77041 14.6115 4.67401C14.6115 4.57761 14.5732 4.48533 14.5051 4.41728L12.9656 2.87736C12.8239 2.73574 12.5942 2.73574 12.4525 2.87736L11.0274 4.3026C10.6402 4.08231 10.2274 3.91064 9.79817 3.79156V1.77816C9.79817 1.57785 9.63571 1.41525 9.43526 1.41525H7.25784C7.0574 1.41525 6.89494 1.57785 6.89494 1.77816V3.79156C6.46569 3.91064 6.05289 4.08231 5.66575 4.3026L4.24064 2.87736C4.09662 2.74127 3.87136 2.74127 3.72748 2.87736L2.18769 4.41728C2.11964 4.48533 2.08137 4.57761 2.08137 4.67401C2.08137 4.77041 2.11964 4.86269 2.18769 4.93074L3.61293 6.35513C3.39236 6.74227 3.22083 7.15536 3.10175 7.58461H1.08849C0.888042 7.58461 0.725586 7.7472 0.725586 7.94751V10.1249C0.725586 10.3254 0.888042 10.4878 1.08849 10.4878ZM1.45139 8.31041H3.38569C3.55623 8.31041 3.7038 8.19176 3.74023 8.02519C3.85931 7.48169 4.07464 6.9637 4.37602 6.4959C4.46803 6.35244 4.44761 6.16404 4.32698 6.0434L2.95744 4.67387L3.98406 3.64711L5.35331 5.01664C5.47395 5.13756 5.66249 5.15798 5.80623 5.06583C6.27418 4.76459 6.79202 4.54926 7.33553 4.43004C7.50195 4.39347 7.62075 4.2459 7.62075 4.07536V2.14106H9.07236V4.07536C9.07236 4.2459 9.19115 4.39347 9.35758 4.43004C9.90108 4.54926 10.4189 4.76459 10.8869 5.06583C11.0306 5.15798 11.2192 5.13756 11.3398 5.01664L12.709 3.64711L13.7354 4.67387L12.3661 6.04298C12.2452 6.16376 12.2249 6.3523 12.3171 6.4959C12.6185 6.96399 12.8335 7.48183 12.9524 8.02548C12.989 8.19204 13.1366 8.31084 13.307 8.31084H15.2417V9.76245H13.307C13.1366 9.76245 12.989 9.8811 12.9524 10.0477C12.8335 10.5912 12.6183 11.109 12.3171 11.5765C12.2251 11.7201 12.2455 11.9085 12.3661 12.0292L13.7357 13.3984L12.709 14.4255L11.3398 13.0558C11.2192 12.935 11.0306 12.9146 10.8869 13.0067C10.4192 13.3081 9.90151 13.5235 9.358 13.6425C9.1913 13.6788 9.07236 13.8265 9.07236 13.9971V15.9314H7.62075V13.9971C7.62075 13.8265 7.50181 13.6788 7.3351 13.6425C6.7916 13.5235 6.27389 13.3081 5.80623 13.0067C5.66249 12.9146 5.47395 12.935 5.35331 13.0558L3.98406 14.4255L2.95772 13.3987L4.32698 12.0295C4.4479 11.9088 4.46817 11.7203 4.37602 11.5765C4.07464 11.1086 3.85931 10.5906 3.74023 10.047C3.70366 9.88039 3.55623 9.76203 3.38569 9.76203H1.45139V8.31041Z" fill="#F62A34"/>
<path d="M8.34659 11.9395C9.95003 11.9395 11.2498 10.6398 11.2498 9.03625C11.2498 7.43282 9.95003 6.13303 8.34659 6.13303C6.74315 6.13303 5.44336 7.43282 5.44336 9.03625C5.44506 10.6388 6.744 11.9378 8.34659 11.9395ZM8.34659 6.85883C9.549 6.85883 10.524 7.83385 10.524 9.03625C10.524 10.2388 9.549 11.2137 8.34659 11.2137C7.14419 11.2137 6.16917 10.2388 6.16917 9.03625C6.17044 7.83414 7.14447 6.86011 8.34659 6.85883Z" fill="#F62A34"/>
<path d="M8.34643 13.0282C10.5511 13.0282 12.3384 11.241 12.3384 9.03626C12.3384 6.83161 10.5511 5.04431 8.34643 5.04431C6.14179 5.04431 4.35449 6.83161 4.35449 9.03626C4.35719 11.2399 6.14278 13.0256 8.34643 13.0282ZM8.34643 5.77012C10.1503 5.77012 11.6126 7.23237 11.6126 9.03626C11.6126 10.8401 10.1503 12.3024 8.34643 12.3024C6.54255 12.3024 5.0803 10.8401 5.0803 9.03626C5.08228 7.23336 6.5434 5.7721 8.34643 5.77012Z" fill="#F62A34"/>
<path d="M21.4111 18.1088V15.2056C21.4111 15.0053 21.2486 14.8427 21.0482 14.8427H20.3224V11.9395C20.3224 11.7392 20.1599 11.5766 19.9595 11.5766H16.6933C16.4929 11.5766 16.3304 11.7392 16.3304 11.9395V14.8427H14.5159C14.3155 14.8427 14.153 15.0053 14.153 15.2056V18.1088H2.5401C1.53843 18.1101 0.726862 18.9217 0.725586 19.9234V20.6492C0.726862 21.651 1.53843 22.4625 2.5401 22.4637H21.4111C22.4127 22.4625 23.2243 21.651 23.2256 20.6492V19.9234C23.2243 18.9217 22.4127 18.1101 21.4111 18.1088ZM20.6853 18.1088H18.1449V15.5685H20.6853V18.1088ZM17.0562 12.3024H19.5966V14.8427H17.0562V12.3024ZM14.8788 15.5685H17.4191V18.1088H14.8788V15.5685ZM22.4998 20.6492C22.4998 21.2505 22.0123 21.7379 21.4111 21.7379H2.5401C1.9389 21.7379 1.45139 21.2505 1.45139 20.6492V19.9234C1.45139 19.3222 1.9389 18.8346 2.5401 18.8346H21.4111C22.0123 18.8346 22.4998 19.3222 22.4998 19.9234V20.6492Z" fill="#F62A34"/>
<path d="M11.9754 19.1975C11.3742 19.1975 10.8867 19.685 10.8867 20.2862C10.8867 20.8876 11.3742 21.3749 11.9754 21.3749C12.5766 21.3749 13.0641 20.8876 13.0641 20.2862C13.0641 19.685 12.5766 19.1975 11.9754 19.1975ZM11.9754 20.6491C11.775 20.6491 11.6125 20.4867 11.6125 20.2862C11.6125 20.0859 11.775 19.9233 11.9754 19.9233C12.1759 19.9233 12.3383 20.0859 12.3383 20.2862C12.3383 20.4867 12.1759 20.6491 11.9754 20.6491Z" fill="#F62A34"/>
<path d="M8.34652 19.1975C7.74532 19.1975 7.25781 19.685 7.25781 20.2862C7.25781 20.8876 7.74532 21.3749 8.34652 21.3749C8.94772 21.3749 9.43523 20.8876 9.43523 20.2862C9.43523 19.685 8.94772 19.1975 8.34652 19.1975ZM8.34652 20.6491C8.14608 20.6491 7.98362 20.4867 7.98362 20.2862C7.98362 20.0859 8.14608 19.9233 8.34652 19.9233C8.54697 19.9233 8.70943 20.0859 8.70943 20.2862C8.70943 20.4867 8.54697 20.6491 8.34652 20.6491Z" fill="#F62A34"/>
<path d="M15.6053 19.1975C15.0041 19.1975 14.5166 19.685 14.5166 20.2862C14.5166 20.8876 15.0041 21.3749 15.6053 21.3749C16.2065 21.3749 16.6941 20.8876 16.6941 20.2862C16.6941 19.685 16.2065 19.1975 15.6053 19.1975ZM15.6053 20.6491C15.4049 20.6491 15.2424 20.4867 15.2424 20.2862C15.2424 20.0859 15.4049 19.9233 15.6053 19.9233C15.8058 19.9233 15.9682 20.0859 15.9682 20.2862C15.9682 20.4867 15.8058 20.6491 15.6053 20.6491Z" fill="#F62A34"/>
<path d="M4.71761 19.1975C4.11641 19.1975 3.62891 19.685 3.62891 20.2862C3.62891 20.8876 4.11641 21.3749 4.71761 21.3749C5.31881 21.3749 5.80632 20.8876 5.80632 20.2862C5.80632 19.685 5.31881 19.1975 4.71761 19.1975ZM4.71761 20.6491C4.51717 20.6491 4.35471 20.4867 4.35471 20.2862C4.35471 20.0859 4.51717 19.9233 4.71761 19.9233C4.91806 19.9233 5.08051 20.0859 5.08051 20.2862C5.08051 20.4867 4.91806 20.6491 4.71761 20.6491Z" fill="#F62A34"/>
<path d="M19.2342 19.1975C18.633 19.1975 18.1455 19.685 18.1455 20.2862C18.1455 20.8876 18.633 21.3749 19.2342 21.3749C19.8354 21.3749 20.3229 20.8876 20.3229 20.2862C20.3229 19.685 19.8354 19.1975 19.2342 19.1975ZM19.2342 20.6491C19.0338 20.6491 18.8713 20.4867 18.8713 20.2862C18.8713 20.0859 19.0338 19.9233 19.2342 19.9233C19.4346 19.9233 19.5971 20.0859 19.5971 20.2862C19.5971 20.4867 19.4346 20.6491 19.2342 20.6491Z" fill="#F62A34"/>
</svg>
