<svg width="20" height="20" viewBox="0 0 20 20" fill="none" xmlns="http://www.w3.org/2000/svg">
<path fill-rule="evenodd" clip-rule="evenodd" d="M5.80764 2.0575C5.8657 1.9993 5.93467 1.95312 6.0106 1.92161C6.08653 1.8901 6.16793 1.87389 6.25014 1.87389C6.33235 1.87389 6.41375 1.8901 6.48968 1.92161C6.56561 1.95312 6.63458 1.9993 6.69264 2.0575L14.1926 9.5575C14.2508 9.61556 14.297 9.68453 14.3285 9.76046C14.36 9.83639 14.3763 9.91779 14.3763 10C14.3763 10.0822 14.36 10.1636 14.3285 10.2395C14.297 10.3155 14.2508 10.3844 14.1926 10.4425L6.69264 17.9425C6.57528 18.0599 6.41611 18.1258 6.25014 18.1258C6.08417 18.1258 5.925 18.0599 5.80764 17.9425C5.69028 17.8251 5.62435 17.666 5.62435 17.5C5.62435 17.334 5.69028 17.1749 5.80764 17.0575L12.8664 10L5.80764 2.9425C5.74944 2.88445 5.70326 2.81548 5.67175 2.73955C5.64024 2.66361 5.62402 2.58221 5.62402 2.5C5.62402 2.41779 5.64024 2.33639 5.67175 2.26046C5.70326 2.18453 5.74944 2.11556 5.80764 2.0575Z" fill="white"/>
</svg>
