<svg width="24" height="24" viewBox="0 0 24 24" fill="none" xmlns="http://www.w3.org/2000/svg">
<path d="M21.931 7.2C22.4796 7.19936 23.0054 6.98845 23.3933 6.61351C23.7812 6.23858 23.9993 5.73024 24 5.2V5.2C23.999 5.15295 23.9892 5.10646 23.971 5.0628C23.967 5.05137 23.9623 5.04016 23.957 5.0292C23.952 5.0192 23.9495 5.0084 23.9437 4.9988L21.0472 0.1988C21.0108 0.138334 20.9586 0.0881558 20.8959 0.0532722C20.8331 0.0183885 20.762 2.0039e-05 20.6897 0H3.31035C3.23786 0.000142018 3.16667 0.0186919 3.10393 0.0537921C3.04118 0.0888923 2.98908 0.139311 2.95283 0.2L0.0562829 5C0.0504898 5.0096 0.0480071 5.0204 0.0430416 5.0304C0.03775 5.04136 0.0330538 5.05257 0.0289726 5.064C0.0109537 5.10729 0.00114214 5.15335 7.1201e-06 5.2C-0.00100304 5.57179 0.105492 5.93645 0.307476 6.25284C0.50946 6.56924 0.798895 6.82476 1.14312 6.9906C1.48735 7.15644 1.87267 7.22598 2.25562 7.19138C2.63856 7.15679 3.00387 7.01943 3.31035 6.7948V17.2C3.31035 17.3061 3.35395 17.4078 3.43155 17.4828C3.50915 17.5579 3.6144 17.6 3.72414 17.6H16.0076C15.8216 17.9745 15.7247 18.3846 15.7241 18.8V23.6C15.7241 23.7061 15.7677 23.8078 15.8453 23.8828C15.9229 23.9579 16.0282 24 16.1379 24H23.5862C23.696 24 23.8012 23.9579 23.8788 23.8828C23.9564 23.8078 24 23.7061 24 23.6V18.8C23.9991 18.0778 23.7096 17.3838 23.1919 16.8631C22.6742 16.3423 21.9683 16.0351 21.2218 16.0056C21.6089 15.7611 21.9175 15.4168 22.1127 15.0117C22.308 14.6066 22.3821 14.1567 22.3268 13.713C22.2714 13.2692 22.0888 12.8493 21.7995 12.5007C21.5102 12.152 21.1257 11.8885 20.6897 11.74V6.7948C21.0466 7.05732 21.4826 7.19964 21.931 7.2V7.2ZM21.931 6.4C21.6744 6.3997 21.4241 6.32265 21.2145 6.17942C21.0049 6.0362 20.8463 5.8338 20.7604 5.6H23.1017C23.0158 5.8338 22.8571 6.0362 22.6476 6.17942C22.438 6.32265 22.1877 6.3997 21.931 6.4ZM17.9309 0.8L19.6552 4.8H17.2887L16.2542 0.8H17.9309ZM19.793 5.6C19.7075 5.83412 19.549 6.03685 19.3393 6.18025C19.1297 6.32364 18.8792 6.40065 18.6223 6.40065C18.3655 6.40065 18.115 6.32364 17.9053 6.18025C17.6957 6.03685 17.5372 5.83412 17.4517 5.6H19.793ZM15.401 0.8L16.4355 4.8H14.0355L13.6912 0.8H15.401ZM16.481 5.6C16.3955 5.83412 16.237 6.03685 16.0273 6.18025C15.8177 6.32364 15.5672 6.40065 15.3103 6.40065C15.0535 6.40065 14.803 6.32364 14.5933 6.18025C14.3837 6.03685 14.2252 5.83412 14.1397 5.6H16.481ZM11.1393 0.8H12.8607L13.2054 4.8H10.7946L11.1393 0.8ZM13.1706 5.6C13.0852 5.83412 12.9267 6.03685 12.717 6.18025C12.5073 6.32364 12.2568 6.40065 12 6.40065C11.7432 6.40065 11.4927 6.32364 11.283 6.18025C11.0733 6.03685 10.9149 5.83412 10.8294 5.6H13.1706ZM10.3088 0.8L9.96414 4.8H7.56414L8.59863 0.8H10.3088ZM9.86028 5.6C9.77481 5.83412 9.61632 6.03685 9.40666 6.18025C9.197 6.32364 8.94649 6.40065 8.68966 6.40065C8.43283 6.40065 8.18232 6.32364 7.97266 6.18025C7.763 6.03685 7.60451 5.83412 7.51904 5.6H9.86028ZM7.7458 0.8L6.71132 4.8H4.34483L6.06911 0.8H7.7458ZM6.54994 5.6C6.46446 5.83412 6.30598 6.03685 6.09632 6.18025C5.88666 6.32364 5.63615 6.40065 5.37932 6.40065C5.12248 6.40065 4.87197 6.32364 4.66231 6.18025C4.45265 6.03685 4.29417 5.83412 4.2087 5.6H6.54994ZM2.06897 6.4C1.81231 6.3997 1.56202 6.32265 1.35244 6.17942C1.14286 6.0362 0.984248 5.8338 0.898352 5.6H3.23959C3.1537 5.8338 2.99508 6.0362 2.7855 6.17942C2.57592 6.32265 2.32564 6.3997 2.06897 6.4ZM3.44814 4.8H1.13421L3.54787 0.8H5.17242L3.44814 4.8ZM9.93104 16.8H5.79311V8.8H9.93104V16.8ZM10.7586 16.8V8.4C10.7586 8.29391 10.715 8.19217 10.6374 8.11716C10.5598 8.04214 10.4546 8 10.3448 8H5.37932C5.26957 8 5.16432 8.04214 5.08672 8.11716C5.00912 8.19217 4.96552 8.29391 4.96552 8.4V16.8H4.13794V6.7948C4.35449 6.95384 4.60149 7.06984 4.86468 7.13611C5.12786 7.20237 5.40202 7.21759 5.67132 7.18089C5.94062 7.14418 6.19974 7.05628 6.43371 6.92225C6.66767 6.78822 6.87186 6.61072 7.03449 6.4C7.22721 6.64839 7.4771 6.85 7.76439 6.98885C8.05168 7.12771 8.36846 7.2 8.68966 7.2C9.01086 7.2 9.32764 7.12771 9.61493 6.98885C9.90222 6.85 10.1521 6.64839 10.3448 6.4C10.5375 6.64839 10.7874 6.85 11.0747 6.98885C11.362 7.12771 11.6788 7.2 12 7.2C12.3212 7.2 12.638 7.12771 12.9253 6.98885C13.2126 6.85 13.4625 6.64839 13.6552 6.4C13.8479 6.64839 14.0978 6.85 14.3851 6.98885C14.6724 7.12771 14.9892 7.2 15.3103 7.2C15.6315 7.2 15.9483 7.12771 16.2356 6.98885C16.5229 6.85 16.7728 6.64839 16.9655 6.4C17.1281 6.61081 17.3322 6.78842 17.5661 6.92256C17.8 7.0567 18.0591 7.14472 18.3284 7.18154C18.5977 7.21835 18.8719 7.20324 19.1351 7.13707C19.3984 7.0709 19.6454 6.95498 19.8621 6.796V11.6C19.58 11.6007 19.3001 11.648 19.0345 11.74V8.4C19.0345 8.29391 18.9909 8.19217 18.9133 8.11716C18.8357 8.04214 18.7304 8 18.6207 8H12C11.8903 8 11.785 8.04214 11.7074 8.11716C11.6298 8.19217 11.5862 8.29391 11.5862 8.4V14C11.5862 14.1061 11.6298 14.2078 11.7074 14.2828C11.785 14.3579 11.8903 14.4 12 14.4H17.4166C17.4737 14.7254 17.5997 15.0359 17.7865 15.3121C17.9733 15.5883 18.217 15.8244 18.5023 16.0056C17.7875 16.0328 17.1086 16.3159 16.5977 16.8H10.7586ZM18.2069 8.8V12.216C17.7893 12.5778 17.5108 13.0656 17.4166 13.6H12.4138V8.8H18.2069ZM23.1724 18.8V23.2H16.5517V18.8C16.5524 18.2698 16.7706 17.7614 17.1584 17.3865C17.5463 17.0116 18.0722 16.8006 18.6207 16.8V17.2C18.6207 17.3061 18.6643 17.4078 18.7419 17.4828L19.0167 17.7484L18.6228 21.44C18.6167 21.4972 18.6234 21.555 18.6426 21.6095C18.6617 21.664 18.6928 21.7138 18.7337 21.7556L19.5612 22.6024C19.5999 22.642 19.6466 22.6735 19.6983 22.6951C19.75 22.7166 19.8057 22.7277 19.8621 22.7277C19.9184 22.7277 19.9741 22.7166 20.0259 22.6951C20.0776 22.6735 20.1242 22.642 20.1629 22.6024L20.9905 21.7556C21.0317 21.714 21.0632 21.6642 21.0827 21.6097C21.1022 21.5553 21.1093 21.4974 21.1034 21.44L20.7095 17.7468L20.9843 17.4812C21.0607 17.4063 21.1035 17.3052 21.1034 17.2V16.8C21.652 16.8006 22.1778 17.0116 22.5657 17.3865C22.9536 17.7614 23.1718 18.2698 23.1724 18.8V18.8ZM19.9833 17.3172C19.9448 17.3543 19.9142 17.3983 19.8934 17.4469C19.8726 17.4954 19.8619 17.5475 19.8621 17.6C19.8616 17.4948 19.818 17.3942 19.7408 17.32L19.4483 17.0344V16.8H20.2759V17.0344L19.9833 17.3172ZM20.2585 21.3412L19.8621 21.7468L19.4657 21.3412L19.8621 17.64C19.8621 17.6264 19.8641 17.6128 19.8641 17.6C19.8641 17.6132 19.8641 17.6268 19.8662 17.64L20.2585 21.3412ZM21.5172 14C21.5172 14.3165 21.4202 14.6258 21.2383 14.8889C21.0564 15.152 20.7979 15.3571 20.4955 15.4782C20.193 15.5993 19.8602 15.631 19.5392 15.5693C19.2181 15.5075 18.9232 15.3551 18.6917 15.1314C18.4602 14.9076 18.3026 14.6225 18.2387 14.3121C18.1748 14.0018 18.2076 13.6801 18.3329 13.3877C18.4582 13.0953 18.6703 12.8455 18.9425 12.6696C19.2147 12.4938 19.5347 12.4 19.8621 12.4C20.301 12.4 20.722 12.5686 21.0325 12.8686C21.3429 13.1687 21.5172 13.5757 21.5172 14ZM20.5519 4.8L18.8276 0.8H20.4521L22.8658 4.8H20.5519Z" fill="#F62A34"/>
</svg>
