<svg width="56" height="56" viewBox="0 0 56 56" fill="none" xmlns="http://www.w3.org/2000/svg">
<rect width="56" height="56" rx="14" fill="#FF9EC3"/>
<mask id="mask0_1198_4066" style="mask-type:alpha" maskUnits="userSpaceOnUse" x="0" y="0" width="56" height="56">
<rect width="56" height="56" rx="14" fill="white"/>
</mask>
<g mask="url(#mask0_1198_4066)">
<path d="M45.5344 20.308V12.55C45.5352 12.4022 45.563 12.2558 45.6164 12.118C45.4334 11.9013 45.3332 11.6267 45.3334 11.343V10.391C45.3331 10.07 45.4607 9.76217 45.688 9.53548C45.9152 9.30879 46.2234 9.18196 46.5444 9.18302H47.7444C48.0651 9.18222 48.3729 9.3092 48.5998 9.53589C48.8267 9.76258 48.9539 10.0703 48.9534 10.391V11.343C48.9539 11.6266 48.854 11.9011 48.6714 12.118C48.7248 12.2558 48.7522 12.4023 48.7524 12.55V20.414C50.0604 25.459 52.1714 25.397 52.1714 29.73V46.284C52.1717 46.604 52.0447 46.9111 51.8185 47.1374C51.5923 47.3638 51.2854 47.491 50.9654 47.491H43.4234C42.7573 47.491 42.2174 46.9511 42.2174 46.285C42.2174 46.285 42.2464 32.937 42.2174 29.731C42.1714 24.873 44.9314 24.207 45.5344 20.308Z" fill="#769C41"/>
<path d="M48.9536 10.816C48.9539 11.2493 48.7819 11.6649 48.4757 11.9714C48.1694 12.2778 47.7539 12.45 47.3206 12.45H46.7666C46.3333 12.4503 45.9177 12.2783 45.6113 11.9721C45.3048 11.6658 45.1326 11.2503 45.1326 10.817C45.1326 9.91458 45.8642 9.18301 46.7666 9.18301H47.3206C48.2225 9.18301 48.9536 9.91413 48.9536 10.816Z" fill="#F5AB35"/>
<path d="M52.1714 33.327V40.194C52.1714 41.5095 51.1049 42.576 49.7894 42.576H44.6064C43.2903 42.576 42.2234 41.5091 42.2234 40.193V33.327C42.2234 32.0109 43.2903 30.944 44.6064 30.944H49.7884C51.1045 30.944 52.1714 32.0109 52.1714 33.327Z" fill="#F5AB35"/>
<path d="M45.5342 19.787C45.5208 20.4402 46.0391 20.9808 46.6922 20.995H47.5922C48.2453 20.9813 48.7636 20.441 48.7502 19.788V15.617C48.7636 14.964 48.2453 14.4237 47.5922 14.41H46.6922C46.0395 14.4242 45.5214 14.9642 45.5342 15.617V19.787Z" fill="#F5AB35"/>
<path d="M49.3334 27.261C49.8244 28.815 49.4014 30.333 50.2224 30.074C51.0434 29.815 51.3094 28.344 50.8244 26.791C50.3394 25.238 49.2694 24.191 48.4504 24.447C47.6314 24.703 48.8434 25.708 49.3334 27.261Z" fill="white"/>
<g style="mix-blend-mode:multiply">
<path d="M42.2283 41.386C42.2283 44.151 42.2173 46.286 42.2173 46.286C42.2184 46.9519 42.7585 47.491 43.4243 47.491H47.1943V9.18503H46.3403C45.6747 9.18558 45.1353 9.72536 45.1353 10.391V11.245C45.1369 11.6129 45.3072 11.9598 45.5973 12.186C45.5583 12.3039 45.5371 12.4269 45.5343 12.551V20.309C44.9343 24.209 42.1713 24.873 42.2163 29.73C42.2233 30.273 42.2273 31.109 42.2273 32.117C42.2273 32.127 42.2273 32.141 42.2273 32.152V41.369C42.2243 41.375 42.2283 41.378 42.2283 41.386Z" fill="#CCCCCC"/>
</g>
<path d="M40.203 26.584V21.141C40.203 20.358 39.783 19.423 41.622 19.722H42.384C44.223 19.422 43.803 20.357 43.803 21.141V26.584C44.131 27.018 47.043 38.535 47.043 39.318V51.361C47.043 51.7373 46.8934 52.0981 46.6273 52.364C46.3611 52.63 46.0002 52.7793 45.624 52.779H38.201C37.4178 52.779 36.783 52.1442 36.783 51.361V39.318C37.6766 35.011 38.8185 30.7592 40.203 26.584Z" fill="#AA0C48"/>
<path d="M43.8438 18.937C43.8438 19.3347 43.5214 19.657 43.1237 19.657H40.8818C40.4843 19.6565 40.1623 19.3344 40.1618 18.937C40.1623 18.5398 40.4845 18.218 40.8818 18.218C40.4841 18.218 40.1618 17.8957 40.1618 17.498C40.1618 17.1004 40.4841 16.778 40.8818 16.778H43.1237C43.5214 16.778 43.8438 17.1004 43.8438 17.498C43.8438 17.8957 43.5214 18.218 43.1237 18.218C43.3146 18.2177 43.4978 18.2934 43.6328 18.4283C43.7679 18.5631 43.8438 18.7462 43.8438 18.937V18.937Z" fill="#2C3A49"/>
<rect x="47.043" y="39.476" width="7.364" height="10.259" transform="rotate(90 47.043 39.476)" fill="#C5D3E2"/>
<path d="M44.2572 32.98C44.6122 35.637 44.7172 37.815 44.4912 37.845C44.2652 37.875 43.7912 35.745 43.4402 33.088C43.0892 30.431 42.9802 28.253 43.2062 28.222C43.4322 28.191 43.9032 30.324 44.2572 32.98Z" fill="white"/>
<g style="mix-blend-mode:multiply">
<path d="M36.7831 39.318V51.36C36.7836 52.1427 37.4183 52.777 38.2011 52.777H41.9131V19.724H41.6231C39.7821 19.424 40.2021 20.357 40.2021 21.142V26.584C38.8184 30.7594 37.6768 35.0111 36.7831 39.318Z" fill="#CCCCCC"/>
<path d="M40.1641 18.936C40.1636 19.1267 40.2388 19.3098 40.3733 19.445C40.5077 19.5802 40.6904 19.6565 40.8811 19.657H41.9131V16.777H40.8811C40.6904 16.7775 40.5077 16.8538 40.3733 16.989C40.2388 17.1242 40.1636 17.3073 40.1641 17.498C40.1646 17.8938 40.4853 18.2145 40.8811 18.215C40.4845 18.2172 40.1641 18.5394 40.1641 18.936Z" fill="#BFBFBF"/>
</g>
<path d="M50.6922 26.584V21.141C50.6922 20.358 50.2722 19.423 52.1112 19.722H52.8742C54.7122 19.422 54.2932 20.357 54.2932 21.141V26.584C54.6202 27.018 57.5332 38.535 57.5332 39.318V51.361C57.5332 51.7373 57.3837 52.0981 57.1175 52.364C56.8514 52.63 56.4905 52.7793 56.1142 52.779H48.6912C48.315 52.7793 47.954 52.63 47.6879 52.364C47.4217 52.0981 47.2722 51.7373 47.2722 51.361V39.318C48.1661 35.011 49.308 30.7593 50.6922 26.584Z" fill="#AA0C48"/>
<path d="M54.335 18.937C54.3344 19.3344 54.0124 19.6565 53.615 19.657H51.372C50.9747 19.6565 50.653 19.3343 50.653 18.937C50.653 18.5399 50.9749 18.218 51.372 18.218C50.9747 18.2175 50.653 17.8953 50.653 17.498C50.653 17.1008 50.9747 16.7786 51.372 16.778H53.613C54.0106 16.778 54.333 17.1004 54.333 17.498C54.333 17.8957 54.0106 18.218 53.613 18.218C53.8041 18.2175 53.9876 18.293 54.123 18.4278C54.2584 18.5627 54.3347 18.7459 54.335 18.937Z" fill="#2C3A49"/>
<rect x="57.5322" y="39.476" width="7.364" height="10.26" transform="rotate(90 57.5322 39.476)" fill="#C5D3E2"/>
<path d="M54.7464 32.98C55.1014 35.637 55.2064 37.815 54.9804 37.845C54.7544 37.875 54.2804 35.745 53.9294 33.088C53.5784 30.431 53.4704 28.253 53.6954 28.222C53.9204 28.191 54.3884 30.324 54.7464 32.98Z" fill="white"/>
<g style="mix-blend-mode:multiply">
<path d="M47.2723 39.318V51.36C47.2729 52.1427 47.9076 52.777 48.6903 52.777H52.4033V19.724H52.1123C50.2713 19.424 50.6913 20.357 50.6913 21.142V26.584C49.3074 30.7593 48.1659 35.011 47.2723 39.318Z" fill="#CCCCCC"/>
<path d="M50.6533 18.936C50.6528 19.1267 50.728 19.3098 50.8625 19.445C50.997 19.5802 51.1796 19.6565 51.3703 19.657H52.4033V16.777H51.3713C51.1806 16.7775 50.998 16.8538 50.8635 16.989C50.729 17.1242 50.6538 17.3073 50.6543 17.498C50.6549 17.8938 50.9756 18.2145 51.3713 18.215C50.9743 18.2167 50.6533 18.539 50.6533 18.936Z" fill="#BFBFBF"/>
</g>
<g style="mix-blend-mode:multiply">
<path d="M33.3557 26.636C33.1837 26.6356 33.012 26.6199 32.8427 26.589C33.2541 27.0731 33.4796 27.6878 33.4787 28.323C33.4695 29.0562 33.1693 29.7556 32.6441 30.2673C32.1189 30.779 31.4119 31.0609 30.6787 31.051C30.6347 31.051 30.5937 31.051 30.5527 31.051V25.596C30.5947 25.596 30.6357 25.596 30.6787 25.596C30.8504 25.5964 31.0217 25.6118 31.1907 25.642C30.779 25.1589 30.5528 24.5448 30.5527 23.91C30.573 22.3834 31.8261 21.1617 33.3527 21.18C34.8796 21.1611 36.133 22.3831 36.1527 23.91C36.1313 25.4344 34.8801 26.6538 33.3557 26.636Z" fill="#CCCCCC"/>
<path d="M39.0788 21.177C37.5521 21.1576 36.2986 22.3793 36.2788 23.906C36.288 24.6394 36.5882 25.339 37.1133 25.851C37.6385 26.363 38.3455 26.6454 39.0788 26.636C39.8121 26.6454 40.5192 26.363 41.0443 25.851C41.5694 25.339 41.8696 24.6394 41.8788 23.906C41.8696 23.1728 41.5694 22.4732 41.0442 21.9614C40.5191 21.4496 39.8121 21.1674 39.0788 21.177Z" fill="#CCCCCC"/>
<path d="M39.0787 28.635C39.0692 29.3681 38.7689 30.0674 38.2438 30.579C37.7187 31.0906 37.0118 31.3726 36.2787 31.363C35.8794 31.3641 35.4844 31.2806 35.1197 31.118C35.7709 31.6286 36.152 32.4096 36.1537 33.237C36.134 34.7639 34.8806 35.9859 33.3537 35.967C33.0757 35.967 32.7991 35.9265 32.5327 35.847C33.0566 36.3529 33.3528 37.0497 33.3537 37.778C33.334 39.3047 32.0804 40.5265 30.5537 40.507V35.047C30.8321 35.0468 31.109 35.0872 31.3757 35.167C30.851 34.6616 30.5543 33.9646 30.5537 33.236C30.5632 32.5029 30.8635 31.8037 31.3887 31.292C31.9138 30.7804 32.6206 30.4984 33.3537 30.508C33.7533 30.5071 34.1486 30.5906 34.5137 30.753C33.8614 30.243 33.4792 29.462 33.4767 28.634C33.4959 27.1067 34.7494 25.8841 36.2767 25.903C36.7465 25.9025 37.2092 26.0179 37.6237 26.239L37.7237 26.299C38.5575 26.7825 39.073 27.6712 39.0787 28.635Z" fill="#CCCCCC"/>
</g>
<g style="mix-blend-mode:multiply">
<path d="M24.956 23.532C24.9362 22.0053 23.6827 20.7836 22.156 20.803C20.6294 20.7841 19.3763 22.0055 19.356 23.532C19.3757 25.0588 20.6292 26.2805 22.156 26.261C22.8892 26.2706 23.5962 25.9885 24.1214 25.4766C24.6465 24.9648 24.9467 24.2653 24.956 23.532Z" fill="#AA0C48"/>
<path d="M27.758 26.262C29.2847 26.2815 30.5383 25.0597 30.558 23.533C30.5377 22.0065 29.2845 20.7851 27.758 20.804C26.2315 20.7851 24.9783 22.0065 24.958 23.533C24.9783 25.0595 26.2315 26.2809 27.758 26.262Z" fill="#AA0C48"/>
<path d="M31.1948 25.639C31.0256 25.6082 30.8539 25.5925 30.6818 25.592C29.9485 25.5827 29.2415 25.8651 28.7164 26.3771C28.1913 26.889 27.8911 27.5887 27.8818 28.322C27.8911 29.0553 28.1913 29.7548 28.7164 30.2666C29.2416 30.7785 29.9486 31.0606 30.6818 31.051C31.4151 31.0606 32.1221 30.7785 32.6472 30.2666C33.1724 29.7548 33.4726 29.0553 33.4818 28.322C33.4817 27.6871 33.256 27.0729 32.8448 26.589C33.0138 26.6199 33.1851 26.6356 33.3568 26.636C34.0901 26.6456 34.7971 26.3635 35.3222 25.8516C35.8474 25.3398 36.1476 24.6403 36.1568 23.907C36.1479 23.1736 35.8478 22.4738 35.3226 21.9618C34.7974 21.4497 34.0903 21.1674 33.3568 21.177C32.6235 21.1677 31.9165 21.4501 31.3914 21.9621C30.8663 22.474 30.5661 23.1737 30.5568 23.907C30.5571 24.5418 30.7833 25.1558 31.1948 25.639Z" fill="#AA0C48"/>
<path d="M39.0788 21.176C38.3455 21.1667 37.6385 21.4491 37.1133 21.9611C36.5882 22.4731 36.288 23.1727 36.2788 23.906C36.2986 25.4328 37.5521 26.6545 39.0788 26.635C40.6055 26.6545 41.8591 25.4328 41.8788 23.906C41.8696 23.1727 41.5694 22.4731 41.0443 21.9611C40.5192 21.4491 39.8121 21.1667 39.0788 21.176Z" fill="#AA0C48"/>
<path d="M27.7567 28.322C27.7475 27.5887 27.4473 26.889 26.9222 26.3771C26.3971 25.8651 25.6901 25.5827 24.9567 25.592C23.4298 25.5731 22.1765 26.7951 22.1567 28.322C22.1765 29.8487 23.43 31.0705 24.9567 31.051C25.69 31.0606 26.397 30.7785 26.9221 30.2666C27.4473 29.7548 27.7475 29.0553 27.7567 28.322Z" fill="#AA0C48"/>
<path d="M36.2801 25.904C34.7533 25.8846 33.4998 27.1063 33.4801 28.633C33.4821 29.4607 33.8635 30.2417 34.5151 30.752C34.1502 30.5899 33.7553 30.5064 33.3561 30.507C31.8293 30.4876 30.5758 31.7093 30.5561 33.236C30.5572 33.9645 30.8538 34.6613 31.3781 35.167C31.1113 35.0873 30.8344 35.0468 30.5561 35.047C30.1925 35.0454 29.8321 35.1133 29.4941 35.247C30.1616 34.7376 30.5541 33.9467 30.5561 33.107C30.5363 31.5802 29.2829 30.3581 27.7561 30.377C26.2292 30.3581 24.9758 31.5802 24.9561 33.107C24.9758 34.6339 26.2292 35.8559 27.7561 35.837C28.1203 35.8377 28.4812 35.7681 28.8191 35.632C28.1509 36.1414 27.758 36.9329 27.7561 37.773C27.7764 39.2995 29.0295 40.5209 30.5561 40.502C32.0826 40.5209 33.3357 39.2995 33.3561 37.773C33.3553 37.0447 33.059 36.3479 32.5351 35.842C32.8015 35.9213 33.0781 35.9614 33.3561 35.961C34.0895 35.9706 34.7966 35.6883 35.3218 35.1763C35.847 34.6643 36.1471 33.9645 36.1561 33.231C36.1541 32.4034 35.7726 31.6224 35.1211 31.112C35.4857 31.2748 35.8807 31.3587 36.2801 31.358C37.0134 31.3674 37.7204 31.085 38.2455 30.573C38.7706 30.061 39.0708 29.3614 39.0801 28.628C39.0576 27.1033 37.8049 25.8846 36.2801 25.904Z" fill="#AA0C48"/>
</g>
<path d="M21.0388 22.151C20.6478 22.666 20.9388 23.29 20.5808 23.274C20.1198 23.254 20.2328 22.351 20.6248 21.836C20.8974 21.3516 21.5008 21.1642 21.9998 21.409C22.3668 21.687 21.4308 21.636 21.0388 22.151Z" fill="white"/>
<path d="M23.6347 27.13C23.2427 27.645 23.5347 28.269 23.1757 28.253C22.7157 28.233 22.8287 27.33 23.2207 26.814C23.4933 26.3295 24.0967 26.1422 24.5957 26.387C24.9607 26.67 24.0257 26.617 23.6347 27.13Z" fill="white"/>
<path d="M26.7137 22.151C26.3217 22.666 26.6137 23.29 26.2547 23.274C25.7937 23.254 25.9077 22.351 26.2997 21.836C26.5723 21.3516 27.1757 21.1642 27.6747 21.409C28.0407 21.687 27.1057 21.636 26.7137 22.151Z" fill="white"/>
<path d="M26.3427 32.113C25.9507 32.628 26.2427 33.252 25.8837 33.237C25.4227 33.217 25.5367 32.313 25.9277 31.798C26.2003 31.3136 26.8037 31.1262 27.3027 31.371C27.6697 31.65 26.7347 31.598 26.3427 32.113Z" fill="white"/>
<path d="M29.3088 26.985C28.9178 27.5 29.2088 28.124 28.8508 28.108C28.3888 28.089 28.5028 27.185 28.8948 26.67C29.1673 26.1856 29.7707 25.9982 30.2698 26.243C30.6358 26.522 29.6998 26.474 29.3088 26.985Z" fill="white"/>
<path d="M32.1518 22.409C31.7598 22.924 32.0518 23.548 31.6928 23.532C31.2318 23.512 31.3458 22.609 31.7368 22.093C32.0097 21.6089 32.613 21.422 33.1118 21.667C33.4788 21.946 32.5438 21.894 32.1518 22.409Z" fill="white"/>
<path d="M29.3088 36.663C28.9178 37.178 29.2088 37.801 28.8508 37.786C28.3888 37.766 28.5028 36.863 28.8948 36.347C29.1673 35.8625 29.7707 35.6752 30.2698 35.92C30.6358 36.2 29.6998 36.148 29.3088 36.663Z" fill="white"/>
<path d="M32.1518 31.923C31.7598 32.438 32.0518 33.062 31.6928 33.046C31.2318 33.026 31.3458 32.123 31.7368 31.607C32.0094 31.1225 32.6128 30.9352 33.1118 31.18C33.4788 31.459 32.5438 31.407 32.1518 31.923Z" fill="white"/>
<path d="M35.1107 27.506C34.7197 28.021 35.0107 28.645 34.6527 28.63C34.1917 28.61 34.3057 27.707 34.6977 27.191C34.9705 26.708 35.5727 26.5216 36.0707 26.766C36.4337 27.043 35.5027 26.991 35.1107 27.506Z" fill="white"/>
<path d="M37.748 22.782C37.356 23.297 37.648 23.921 37.29 23.906C36.829 23.886 36.943 22.983 37.334 22.467C37.6061 21.9827 38.2092 21.7953 38.708 22.04C39.076 22.319 38.141 22.272 37.748 22.782Z" fill="white"/>
<path d="M32.899 1.90401C33.6152 0.800063 34.8083 0.0965163 36.121 0.0040113C37.7402 0.000375746 39.2738 0.73112 40.291 1.99101C41.5978 3.69985 41.9976 5.93517 41.364 7.99101C40.14 13.261 33.688 14.259 33.625 14.266C33.625 14.266 39.433 12.944 40.549 8.13701C41.132 6.28084 40.7818 4.25734 39.609 2.70501C38.7218 1.60181 37.3827 0.959818 35.967 0.959011C34.9001 0.926082 33.9013 1.48193 33.367 2.40601C32.8617 3.40007 32.9176 4.58681 33.514 5.52901C34.0505 6.10453 34.8356 6.37968 35.614 6.26501C36.4381 6.123 37.078 5.46816 37.201 4.64101C37.4296 4.07858 37.2997 3.43394 36.871 3.00401C36.4588 2.68644 35.9062 2.61933 35.43 2.82901C35.192 2.9716 35.0258 3.20865 34.973 3.48101C34.7656 4.22935 35.0615 5.02633 35.707 5.45801C35.3762 5.44222 35.0638 5.30139 34.833 5.06401C34.4537 4.62632 34.267 4.05417 34.315 3.47701C34.3195 2.92936 34.6516 2.43769 35.158 2.22901C35.8652 1.91118 36.6906 2.01334 37.299 2.49401C37.9399 3.07687 38.1572 3.9935 37.846 4.80201C37.6603 5.88831 36.8056 6.73699 35.718 6.91501C34.6775 7.07338 33.6301 6.67492 32.958 5.86501C32.2419 4.72201 32.1815 3.28614 32.799 2.08701C32.825 2.02401 32.861 1.96401 32.899 1.90401Z" fill="#769C41"/>
<path d="M32.912 11.521C32.712 11.272 34.431 10.958 35.343 9.62701C35.6937 8.89935 35.9498 8.12975 36.105 7.33701L35.163 7.54801L34.085 4.09101L31.012 2.07001L29.43 4.10301C29.43 4.10301 29.574 8.45601 29.13 8.26801C28.686 8.08001 28.866 4.64901 28.866 4.64901L27.933 3.14901L27.19 3.87701L22.012 2.18601L21.312 7.57601L20.33 7.92101L21.263 9.42101C21.263 9.42101 24.317 10.621 24.289 11.102C24.261 11.583 20.523 9.69001 20.523 9.69001L18.001 10.211L18.287 13.057L21.087 16.357L20.482 17.108C21.2666 17.2938 22.0673 17.404 22.873 17.437C23.584 17.386 25.473 15.448 25.609 15.737C25.745 16.026 23.589 19.387 23.589 19.387C23.589 19.387 25.714 20.347 27.073 19.814C27.6986 19.6037 28.2935 19.3112 28.842 18.944L29.142 19.364C29.142 19.364 30.259 17.977 30.001 17.23C29.743 16.483 28.989 16.33 29.165 15.687C29.3506 15.2504 29.5034 14.8004 29.622 14.341C29.863 14.45 30.438 14.398 30.995 14.507L31.032 14.515L31.039 14.522V14.516C31.649 14.665 31.47 15.388 32.015 15.938C32.56 16.488 34.308 16.11 34.308 16.11L34.064 15.653C34.6356 15.3241 35.1609 14.9206 35.626 14.453C36.705 13.469 36.782 11.138 36.782 11.138C36.782 11.138 33.108 11.771 32.912 11.521Z" fill="#769C41"/>
<g style="mix-blend-mode:multiply">
<path d="M35.1618 7.54702L36.1038 7.33502C35.9485 8.12792 35.6927 8.89779 35.3428 9.62602C34.4308 10.956 32.7148 11.27 32.9128 11.518C33.1108 11.766 36.7738 11.128 36.7738 11.128C36.7738 11.128 36.6968 13.458 35.6168 14.443C35.1518 14.9103 34.6269 15.3138 34.0558 15.643L34.2988 16.099C34.2988 16.099 32.5618 16.489 32.0058 15.928C31.4498 15.367 31.6388 14.654 31.0308 14.505V14.511L31.0248 14.505L30.9888 14.496C30.4298 14.388 29.8548 14.439 29.6138 14.33C29.6145 14.3363 29.6145 14.3427 29.6138 14.349L22.0518 2.19702L27.1818 3.87202L27.9248 3.14502L28.8578 4.64502C28.8578 4.64502 28.6748 8.07602 29.1218 8.26302C29.5688 8.45002 29.4218 4.09902 29.4218 4.09902L31.0048 2.06702L34.0768 4.08702L35.1618 7.54702Z" fill="#CCCCCC"/>
</g>
<path d="M30.532 22.235C30.5028 22.2184 30.4762 22.1975 30.453 22.173C30.3292 22.0396 30.3368 21.8311 30.47 21.707C30.47 21.707 30.988 21.115 30.954 18.897C30.8319 17.3283 30.2093 15.8403 29.178 14.652C29.055 14.5178 29.0639 14.3092 29.198 14.186C29.2624 14.1267 29.3477 14.0954 29.4352 14.0991C29.5227 14.1029 29.605 14.1414 29.664 14.206C30.8091 15.5101 31.4936 17.1546 31.612 18.886C31.652 21.431 30.994 22.119 30.918 22.186C30.8139 22.2848 30.6576 22.3047 30.532 22.235Z" fill="#769C41"/>
<path d="M31.0199 21.505H30.9819C30.8023 21.4846 30.673 21.3227 30.6929 21.143C30.9917 19.7884 31.9874 18.6945 33.3079 18.27C35.1944 17.6336 37.1776 17.3321 39.1679 17.379C39.3494 17.3839 39.4929 17.5345 39.4889 17.716C39.4835 17.8974 39.3334 18.0408 39.1519 18.038C37.2555 17.9985 35.3661 18.2822 33.5649 18.877C32.4658 19.2135 31.6231 20.1009 31.3439 21.216C31.323 21.3796 31.1849 21.5028 31.0199 21.505Z" fill="#769C41"/>
<path d="M40.7501 19.794C40.9171 19.703 40.9311 20.746 41.6241 21.416C42.0181 21.6953 42.4462 21.9228 42.8981 22.093L42.8671 21.517L45.0131 21.225L46.5131 19.614L45.4721 18.479C45.4721 18.479 42.8911 18.13 43.0471 17.885C43.2031 17.64 45.2061 18.085 45.2061 18.085L46.1831 17.685L45.8281 17.174L47.3411 14.29L44.2331 13.342L44.1271 12.729L43.1501 13.129C43.1501 13.129 42.1401 14.811 41.8581 14.746C41.5761 14.681 43.0651 12.666 43.0651 12.666L43.0091 11.127L41.3021 11.012L39.0791 12.332L38.6961 11.9C38.5087 12.3442 38.3643 12.8053 38.2651 13.277C38.2241 13.701 39.1781 15.007 38.9961 15.06C38.2994 14.6036 37.6466 14.0833 37.0461 13.506C36.6364 14.095 36.4261 14.7998 36.4461 15.517C36.5082 15.907 36.6218 16.287 36.7841 16.647L36.5061 16.784C36.5061 16.784 37.2131 17.584 37.6791 17.502C38.1451 17.42 38.3081 16.995 38.6711 17.163C38.9961 17.313 39.2711 17.556 39.4201 17.563C39.3311 17.694 39.3051 18.038 39.1861 18.356C39.1861 18.363 39.1801 18.37 39.1771 18.377C39.0281 18.722 38.6201 18.544 38.2411 18.811C37.8621 19.078 37.9111 20.146 37.9111 20.146L38.2051 20.046C38.3424 20.416 38.5284 20.7661 38.7581 21.087C39.2474 21.6118 39.8919 21.9661 40.5971 22.098C40.5688 21.3268 40.6201 20.5547 40.7501 19.794Z" fill="#769C41"/>
<g style="mix-blend-mode:multiply">
<path d="M42.8692 21.518L42.9002 22.094C42.4484 21.9235 42.0203 21.696 41.6262 21.417C40.9322 20.747 40.9182 19.704 40.7522 19.796C40.6201 20.5602 40.5678 21.336 40.5962 22.111C39.8909 21.9786 39.2465 21.624 38.7572 21.099C38.5279 20.7782 38.342 20.4285 38.2042 20.059L37.9112 20.159C37.9112 20.159 37.8542 19.096 38.2402 18.824C38.6262 18.552 39.0282 18.735 39.1762 18.391L39.1852 18.37C39.3042 18.052 39.3312 17.707 39.4192 17.576C39.4155 17.5765 39.4118 17.5765 39.4082 17.576L47.3252 14.328L45.8252 17.185L46.1792 17.696L45.2032 18.096C45.2032 18.096 43.2032 17.647 43.0442 17.896C42.8852 18.145 45.4682 18.49 45.4682 18.49L46.5092 19.625L45.0092 21.235L42.8692 21.518Z" fill="#CCCCCC"/>
</g>
</g>
</svg>
