<svg width="19" height="16" viewBox="0 0 19 16" fill="none" xmlns="http://www.w3.org/2000/svg">
<path d="M14.939 9.77957C14.8438 9.50676 14.6452 9.28763 14.3903 9.17439V1.82507C14.3891 1.38775 14.0518 1.03356 13.6353 1.03226H5.58141C5.16493 1.03356 4.82761 1.38775 4.82636 1.82507V9.23253C4.5408 9.36882 4.26783 9.53248 4.01091 9.72143L3.22062 10.3028L2.93119 9.86942C2.85129 9.75084 2.69559 9.72143 2.58135 9.80336L0.107296 11.6215C-0.00596274 11.7064 -0.0339089 11.8707 0.0443752 11.9915L2.64427 15.8868C2.72361 16.0063 2.88008 16.0359 2.99411 15.9529L5.46816 14.1347C5.58117 14.0497 5.60908 13.8856 5.53108 13.7648L5.38762 13.5507C5.87326 13.2023 6.46991 13.0685 7.04873 13.1781L7.49673 13.2574C8.06271 13.3629 8.64519 13.3101 9.18552 13.1041L14.3375 11.1353C14.5885 11.0394 14.793 10.8426 14.9058 10.5883C15.0186 10.334 15.0306 10.0431 14.939 9.77957ZM10.8668 1.5608H13.6353C13.7743 1.5608 13.887 1.67911 13.887 1.82507V2.61787H10.8668V1.5608ZM8.8533 1.5608H10.3634V3.83087L9.78705 3.22305C9.68813 3.11999 9.52857 3.11999 9.42966 3.22305L8.8533 3.83087V1.5608ZM5.32973 1.82507C5.32973 1.67911 5.44241 1.5608 5.58141 1.5608H8.34993V2.61787H5.32973V1.82507ZM5.32973 3.14641H8.34993V4.46776C8.34954 4.57473 8.4114 4.67111 8.50598 4.71089C8.5997 4.75227 8.70794 4.73037 8.78031 4.65539L9.60835 3.7833L10.4364 4.65539C10.484 4.70468 10.5482 4.73223 10.6151 4.73203C10.6481 4.73294 10.6809 4.7257 10.7107 4.71089C10.8053 4.67111 10.8672 4.57473 10.8668 4.46776V3.14641H13.887V9.09511C13.8063 9.10228 13.7268 9.12004 13.6504 9.14797L12.7594 9.48888H10.9901C10.8573 9.36983 10.6965 9.29043 10.5245 9.25896L7.99506 8.7912C7.1778 8.63943 6.33799 8.69194 5.54366 8.94448L5.49836 8.96034C5.44047 8.97619 5.3851 8.99998 5.32973 9.02112V3.14641ZM2.91105 15.3689L0.603113 11.9043L2.6644 10.3874L4.97234 13.852L2.91105 15.3689ZM14.491 10.2341C14.4594 10.4201 14.3356 10.5743 14.1663 10.6384L9.01438 12.6073C8.55701 12.7817 8.06389 12.8264 7.58482 12.7367L7.1343 12.6575C6.42441 12.5233 5.69275 12.6885 5.09818 13.1173L3.51006 10.7336L4.30034 10.1548C4.70809 9.85245 5.15926 9.62048 5.63678 9.46773L5.68209 9.45452C6.40366 9.22468 7.16637 9.17491 7.90949 9.30917L10.4364 9.77693C10.5685 9.80248 10.6859 9.88118 10.7636 9.99627C10.8076 10.0643 10.8361 10.1421 10.8466 10.2235C10.8595 10.2975 10.8552 10.3737 10.8341 10.4455C10.7621 10.7074 10.5131 10.8696 10.2577 10.8208L7.53699 10.316L7.45142 10.834L10.1696 11.3388C10.2284 11.3515 10.2883 11.3577 10.3483 11.3573C10.7932 11.3568 11.1855 11.0511 11.3148 10.6041L13.8215 9.64479C14.0829 9.54567 14.3712 9.68761 14.4658 9.96192C14.4981 10.0485 14.5068 10.1427 14.491 10.2341Z" fill="white"/>
<path d="M15 8.25806C17.2091 8.25806 19 6.40943 19 4.12903C19 1.84863 17.2091 0 15 0C12.7909 0 11 1.84863 11 4.12903C11 6.40943 12.7909 8.25806 15 8.25806Z" fill="white"/>
<path fill-rule="evenodd" clip-rule="evenodd" d="M17.75 4.64516H15.5V6.96774H14.75V4.64516H12.5V3.87097H14.75V1.54839H15.5V3.87097H17.75V4.64516Z" fill="#23385B"/>
</svg>
