<svg width="24" height="24" viewBox="0 0 24 24" fill="none" xmlns="http://www.w3.org/2000/svg">
<g clip-path="url(#clip0_1198_3114)">
<path d="M7.2 14.4V10.4C7.2 10.0817 7.07357 9.77651 6.84853 9.55147C6.62348 9.32643 6.31826 9.2 6 9.2C5.68174 9.2 5.37652 9.32643 5.15147 9.55147C4.92643 9.77651 4.8 10.0817 4.8 10.4V10.8011C4.41256 10.5096 3.93237 10.3689 3.44889 10.4052C2.9654 10.4415 2.5116 10.6523 2.17201 10.9984C1.83242 11.3444 1.63022 11.8021 1.60306 12.2862C1.5759 12.7703 1.72565 13.2477 2.0244 13.6296C1.46035 13.7197 0.946826 14.0078 0.575867 14.4422C0.204908 14.8765 0.000756929 15.4288 0 16V18.4C0.000357316 18.7181 0.1269 19.0232 0.351867 19.2481C0.576833 19.4731 0.88185 19.5996 1.2 19.6H1.6V23.6C1.6 23.7061 1.64214 23.8078 1.71716 23.8828C1.79217 23.9579 1.89391 24 2 24H5.2C5.30609 24 5.40783 23.9579 5.48284 23.8828C5.55786 23.8078 5.6 23.7061 5.6 23.6V16.1656L7.08285 14.6828C7.11999 14.6457 7.14946 14.6016 7.16956 14.5531C7.18966 14.5045 7.2 14.4525 7.2 14.4ZM3.6 11.2C3.83734 11.2 4.06935 11.2704 4.26668 11.4022C4.46402 11.5341 4.61783 11.7215 4.70866 11.9408C4.79948 12.16 4.82324 12.4013 4.77694 12.6341C4.73064 12.8669 4.61635 13.0807 4.44853 13.2485C4.28071 13.4163 4.06689 13.5306 3.83411 13.5769C3.60133 13.6232 3.36005 13.5995 3.14078 13.5087C2.92151 13.4178 2.73409 13.264 2.60224 13.0667C2.47038 12.8693 2.4 12.6373 2.4 12.4C2.40037 12.0819 2.52692 11.7768 2.75188 11.5519C2.97684 11.3269 3.28185 11.2004 3.6 11.2ZM6.4 14.2343L4.91715 15.7171C4.88001 15.7543 4.85054 15.7984 4.83044 15.8469C4.81034 15.8955 4.8 15.9475 4.8 16V23.2H4V20.4H3.2V23.2H2.4V16.8H1.6V18.8H1.2C1.09395 18.7999 0.992278 18.7577 0.917289 18.6827C0.8423 18.6077 0.800119 18.506 0.8 18.4V16C0.800476 15.5758 0.9692 15.1691 1.26916 14.8692C1.56911 14.5692 1.9758 14.4005 2.4 14.4H3.2V16H4V14.36C4.45146 14.2672 4.85711 14.0216 5.14857 13.6645C5.44003 13.3075 5.59946 12.8609 5.6 12.4V10.4C5.6 10.2939 5.64214 10.1922 5.71716 10.1172C5.79217 10.0421 5.89391 10 6 10C6.10609 10 6.20783 10.0421 6.28284 10.1172C6.35786 10.1922 6.4 10.2939 6.4 10.4V14.2343Z" fill="#F62A34"/>
<path d="M23.6004 21.6H22.0004V7.96C22.4518 7.8672 22.8575 7.62158 23.149 7.26455C23.4404 6.90751 23.5999 6.46089 23.6004 6V0.4C23.6004 0.293913 23.5582 0.192172 23.4832 0.117157C23.4082 0.0421427 23.3065 0 23.2004 0H0.800391C0.694304 0 0.592562 0.0421427 0.517548 0.117157C0.442533 0.192172 0.400391 0.293913 0.400391 0.4V6C0.400926 6.46089 0.560363 6.90751 0.851822 7.26455C1.14328 7.62158 1.54893 7.8672 2.00039 7.96V10H2.80039V7.96C3.27995 7.86142 3.70682 7.59066 4.00039 7.19885C4.18642 7.44762 4.4279 7.64959 4.70565 7.7887C4.98339 7.92782 5.28975 8.00025 5.60039 8.00025C5.91103 8.00025 6.21739 7.92782 6.49513 7.7887C6.77288 7.64959 7.01436 7.44762 7.20039 7.19885C7.38642 7.44762 7.6279 7.64959 7.90565 7.7887C8.18339 7.92782 8.48975 8.00025 8.80039 8.00025C9.11103 8.00025 9.41739 7.92782 9.69513 7.7887C9.97288 7.64959 10.2144 7.44762 10.4004 7.19885C10.5864 7.44762 10.8279 7.64959 11.1056 7.7887C11.3834 7.92782 11.6898 8.00025 12.0004 8.00025C12.311 8.00025 12.6174 7.92782 12.8951 7.7887C13.1729 7.64959 13.4144 7.44762 13.6004 7.19885C13.7864 7.44762 14.0279 7.64959 14.3056 7.7887C14.5834 7.92782 14.8898 8.00025 15.2004 8.00025C15.511 8.00025 15.8174 7.92782 16.0951 7.7887C16.3729 7.64959 16.6144 7.44762 16.8004 7.19885C16.9864 7.44762 17.2279 7.64959 17.5056 7.7887C17.7834 7.92782 18.0898 8.00025 18.4004 8.00025C18.711 8.00025 19.0174 7.92782 19.2951 7.7887C19.5729 7.64959 19.8144 7.44762 20.0004 7.19885C20.294 7.59066 20.7208 7.86142 21.2004 7.96V21.6H13.6004V10.4C13.6004 10.2939 13.5582 10.1922 13.4832 10.1172C13.4082 10.0421 13.3065 10 13.2004 10H8.40039C8.2943 10 8.19256 10.0421 8.11755 10.1172C8.04253 10.1922 8.00039 10.2939 8.00039 10.4V21.6H6.40039V22.4H23.2004V23.2H6.40039V24H23.6004C23.7065 24 23.8082 23.9579 23.8832 23.8828C23.9582 23.8078 24.0004 23.7061 24.0004 23.6V22C24.0004 21.8939 23.9582 21.7922 23.8832 21.7172C23.8082 21.6421 23.7065 21.6 23.6004 21.6ZM22.8004 4.4H20.4004V0.8H22.8004V4.4ZM19.6004 4.4H17.2004V0.8H19.6004V4.4ZM16.4004 4.4H14.0004V0.8H16.4004V4.4ZM13.2004 4.4H10.8004V0.8H13.2004V4.4ZM10.0004 4.4H7.60039V0.8H10.0004V4.4ZM6.80039 4.4H4.40039V0.8H6.80039V4.4ZM3.60039 0.8V4.4H1.20039V0.8H3.60039ZM2.40039 7.2C2.08224 7.19964 1.77722 7.0731 1.55226 6.84813C1.32729 6.62317 1.20075 6.31815 1.20039 6V5.2H3.60039V6C3.60003 6.31815 3.47349 6.62317 3.24852 6.84813C3.02356 7.0731 2.71854 7.19964 2.40039 7.2ZM5.60039 7.2C5.28224 7.19964 4.97722 7.0731 4.75226 6.84813C4.52729 6.62317 4.40075 6.31815 4.40039 6V5.2H6.80039V6C6.80003 6.31815 6.67349 6.62317 6.44852 6.84813C6.22356 7.0731 5.91854 7.19964 5.60039 7.2ZM8.80039 7.2C8.48224 7.19964 8.17722 7.0731 7.95226 6.84813C7.72729 6.62317 7.60075 6.31815 7.60039 6V5.2H10.0004V6C10 6.31815 9.87349 6.62317 9.64852 6.84813C9.42356 7.0731 9.11854 7.19964 8.80039 7.2ZM12.0004 7.2C11.6822 7.19964 11.3772 7.0731 11.1523 6.84813C10.9273 6.62317 10.8007 6.31815 10.8004 6V5.2H13.2004V6C13.2 6.31815 13.0735 6.62317 12.8485 6.84813C12.6236 7.0731 12.3185 7.19964 12.0004 7.2ZM15.2004 7.2C14.8822 7.19964 14.5772 7.0731 14.3523 6.84813C14.1273 6.62317 14.0007 6.31815 14.0004 6V5.2H16.4004V6C16.4 6.31815 16.2735 6.62317 16.0485 6.84813C15.8236 7.0731 15.5185 7.19964 15.2004 7.2ZM18.4004 7.2C18.0822 7.19964 17.7772 7.0731 17.5523 6.84813C17.3273 6.62317 17.2007 6.31815 17.2004 6V5.2H19.6004V6C19.6 6.31815 19.4735 6.62317 19.2485 6.84813C19.0236 7.0731 18.7185 7.19964 18.4004 7.2ZM20.4004 6V5.2H22.8004V6C22.8004 6.31826 22.674 6.62348 22.4489 6.84853C22.2239 7.07357 21.9187 7.2 21.6004 7.2C21.2821 7.2 20.9769 7.07357 20.7519 6.84853C20.5268 6.62348 20.4004 6.31826 20.4004 6ZM8.80039 21.6V10.8H12.8004V21.6H8.80039Z" fill="#F62A34"/>
<path d="M10.3996 15.6H9.59961V16.4H10.3996V15.6Z" fill="#F62A34"/>
<path d="M19.6004 19.2C19.7065 19.2 19.8082 19.1579 19.8832 19.0828C19.9582 19.0078 20.0004 18.9061 20.0004 18.8V10.4C20.0004 10.2939 19.9582 10.1922 19.8832 10.1172C19.8082 10.0421 19.7065 10 19.6004 10H14.8004C14.6943 10 14.5926 10.0421 14.5175 10.1172C14.4425 10.1922 14.4004 10.2939 14.4004 10.4V18.8C14.4004 18.9061 14.4425 19.0078 14.5175 19.0828C14.5926 19.1579 14.6943 19.2 14.8004 19.2H19.6004ZM15.2004 18.4V17.6H19.2004V18.4H15.2004ZM16.8004 10.8V11.6H16.0004V12.4H18.4004V11.6H17.6004V10.8H19.2004V16.8H15.2004V10.8H16.8004Z" fill="#F62A34"/>
</g>
<defs>
<clipPath id="clip0_1198_3114">
<rect width="24" height="24" fill="white"/>
</clipPath>
</defs>
</svg>
