<svg width="56" height="56" viewBox="0 0 56 56" fill="none" xmlns="http://www.w3.org/2000/svg">
<rect width="56" height="56" rx="14" fill="#FBD96D"/>
<mask id="mask0_1198_4064" style="mask-type:alpha" maskUnits="userSpaceOnUse" x="0" y="0" width="56" height="56">
<rect width="56" height="56" rx="14" fill="white"/>
</mask>
<g mask="url(#mask0_1198_4064)">
<path fill-rule="evenodd" clip-rule="evenodd" d="M20.5 19C20.7765 19 21 18.7329 21 18.4038V16.5962C21 16.2671 20.7765 16 20.5 16C20.2235 16 20 16.2671 20 16.5962V18.4038C20 18.7329 20.2235 19 20.5 19Z" fill="#88C057"/>
<path fill-rule="evenodd" clip-rule="evenodd" d="M17.6633 22.8252C18.0385 23.5608 18.7258 24 19.5 24C20.2742 24 20.9615 23.5608 21.3591 22.7761L22.9354 19.0718C23.0978 18.6931 22.9431 18.2433 22.5924 18.0694C22.239 17.8948 21.8246 18.0611 21.6643 18.4406L20.1104 22.0957C19.9298 22.4503 19.6232 22.4881 19.5 22.4881C19.3768 22.4881 19.0702 22.4503 18.912 22.1448L17.3357 18.4406C17.1754 18.0611 16.761 17.8955 16.4076 18.0694C16.0569 18.2433 15.9022 18.6931 16.0646 19.0718L17.6633 22.8252Z" fill="#88C057"/>
<path fill-rule="evenodd" clip-rule="evenodd" d="M25.4329 21.7728C24.852 21.4088 24.1784 21.1533 23.43 21.012C23.1157 20.9523 22.8111 21.1227 22.6789 21.4241L22.0863 22.784L22.0537 22.8473C21.4223 24.0595 20.2814 24.7824 19 24.7824C17.7407 24.7824 16.5797 24.0602 15.9725 22.9012L15.3218 21.4241C15.1902 21.1234 14.8835 20.9516 14.5713 21.012C13.8298 21.1511 13.1618 21.4037 12.5851 21.7619C10.8702 22.8284 10 24.588 10 26.9919C10 31.8572 13.5328 35 19 35C19.8799 35 20.7875 34.9141 21.6986 34.7437C25.363 34.0601 28.0138 30.7856 27.9999 26.9577C27.9909 24.58 27.1276 22.835 25.4329 21.7728Z" fill="#ED7161"/>
<path fill-rule="evenodd" clip-rule="evenodd" d="M37.3362 8.8462C37.6201 8.009 38.4215 7.4 39.3746 7.4C39.772 7.4 40.0933 7.0864 40.0933 6.7C40.0933 6.3129 39.772 6 39.3746 6C37.6266 6 36.1697 7.2229 35.8499 8.8357C29.8119 9.2088 25 14.6926 25 21.4C25 28.3475 30.159 34 36.4996 34C42.841 34 48 28.3475 48 21.4C48 14.7612 43.2866 9.3187 37.3362 8.8462Z" fill="#88C057"/>
<path fill-rule="evenodd" clip-rule="evenodd" d="M38.6327 32C39.7579 29.2164 40.1111 24.3256 40.1111 21C40.1111 17.6744 39.7579 12.7836 38.6327 10C41.1453 11.6288 43 16.0025 43 21C43 25.9975 41.1453 30.3712 38.6327 32ZM30 21C30 16.0025 31.8554 11.6288 34.368 10C33.2428 12.7836 32.8889 17.6744 32.8889 21C32.8889 24.3256 33.2428 29.2164 34.368 32C31.8554 30.3712 30 25.9975 30 21Z" fill="#A4E869"/>
<mask id="mask1_1198_4064" style="mask-type:alpha" maskUnits="userSpaceOnUse" x="8" y="23" width="24" height="19">
<path fill-rule="evenodd" clip-rule="evenodd" d="M8 23.7017H31.2972V41.9942H8V23.7017Z" fill="white"/>
</mask>
<g mask="url(#mask1_1198_4064)">
<path fill-rule="evenodd" clip-rule="evenodd" d="M28.8201 24.1524C28.5406 23.7449 27.9625 23.5859 27.4994 23.7914L26.6693 24.1608C26.3728 24.2931 26.1533 24.5451 26.0672 24.8526C25.9818 25.1559 26.039 25.4761 26.2218 25.7322C26.5239 26.1523 27.2079 27.2283 27.0399 28.1403C26.615 30.447 25.3444 32.0958 23.2634 33.0402C20.2415 34.411 15.779 34.0401 12.4112 32.1394C12.1267 31.979 11.807 31.7939 11.4201 31.5659C10.4905 31.0409 9.46131 31.1268 8.73495 31.7897C7.95284 32.5025 7.77637 33.6791 8.29519 34.7171C9.58695 37.299 11.2317 39.0913 13.4721 40.3559C13.7037 40.4861 13.9437 40.612 14.1921 40.7331C18.8587 42.999 24.4719 42.1581 28.1601 38.6395C34.2427 32.8354 29.7766 25.5535 28.8201 24.1524Z" fill="#DC9628"/>
</g>
<mask id="mask2_1198_4064" style="mask-type:alpha" maskUnits="userSpaceOnUse" x="13" y="23" width="24" height="25">
<path fill-rule="evenodd" clip-rule="evenodd" d="M13.0005 23.6785H36.2983V48H13.0005V23.6785Z" fill="white"/>
</mask>
<g mask="url(#mask2_1198_4064)">
<path fill-rule="evenodd" clip-rule="evenodd" d="M28.1793 23.791C27.6753 23.548 27.0252 23.7105 26.6948 24.1653L26.1033 24.9813C25.8915 25.273 25.8231 25.6383 25.9155 25.9855C26.0066 26.3271 26.2445 26.6084 26.5678 26.757C27.1 27.0001 28.3762 27.6716 28.7348 28.6514C29.6419 31.1313 29.3546 33.4348 27.8807 35.4973C25.7405 38.4924 21.2115 40.5841 16.8675 40.5841C16.5005 40.5841 16.0854 40.5792 15.5807 40.5702C14.3814 40.5702 13.4341 41.2188 13.1101 42.2633C12.7614 43.3869 13.2626 44.6292 14.3581 45.3549C17.0828 47.1591 19.6981 48.0001 22.588 48.0001C22.8866 48.0001 23.1908 47.9903 23.5 47.9716C29.3101 47.6133 34.2598 43.7105 35.8176 38.2577C38.3863 29.2646 29.9052 24.6292 28.1793 23.791Z" fill="#EEAF4B"/>
</g>
<path fill-rule="evenodd" clip-rule="evenodd" d="M53.7315 40L53.5409 39.9972C49.9855 39.9023 47.11 37.0952 47.1298 33.7399C47.135 33.0202 47.2684 32.3155 47.5288 31.6454C48.059 30.2797 48.6002 28.6889 48.6002 27.2474V24.4014C46.142 24.2194 44.2001 22.2304 44.2001 19.8115C44.2001 19.7414 44.2023 19.6705 44.2059 19.5983C42.85 18.8475 42 17.4535 42 15.9158C42 14.2682 43.0076 12.7694 44.544 12.0767C45.1578 10.2435 46.5703 8.74119 48.4037 7.97408C49.1172 6.7664 50.4593 6 51.9003 6C53.0136 6 54.0549 6.44057 54.8088 7.20414C55.3691 6.88115 56.0086 6.70832 56.6672 6.70832C58.1669 6.70832 59.4928 7.59018 60.0494 8.90552C62.3015 9.28235 64 11.1863 64 13.4373C64 14.4517 63.6553 15.427 63.0202 16.2274C63.1838 16.6992 63.2666 17.1872 63.2666 17.6865C63.2666 20.1062 61.3247 22.0951 58.8665 22.2765V27.2474C58.8665 28.6003 59.1525 29.8158 59.8529 31.4435C60.1726 32.1851 60.3339 32.9699 60.3339 33.776C60.3339 37.2078 57.3726 40 53.7315 40Z" fill="#88C057"/>
<path fill-rule="evenodd" clip-rule="evenodd" d="M53.5 30C53.2235 30 53 29.68 53 29.2856V15.7144C53 15.32 53.2235 15 53.5 15C53.7765 15 54 15.32 54 15.7144V29.2856C54 29.68 53.7765 30 53.5 30Z" fill="#5C922C"/>
<path fill-rule="evenodd" clip-rule="evenodd" d="M55.5 29C55.2235 29 55 28.7101 55 28.3529V18.6471C55 18.2899 55.2235 18 55.5 18C55.7765 18 56 18.2899 56 18.6471V28.3529C56 28.7101 55.7765 29 55.5 29Z" fill="#5C922C"/>
<path fill-rule="evenodd" clip-rule="evenodd" d="M54.242 33.4535C52.8626 32.2751 51.5604 31.1627 51.5604 27.6689V19.6669C51.5604 19.2988 51.2124 19 50.7802 19C50.3495 19 50 19.2988 50 19.6669V27.6689C50 31.7156 51.6673 33.14 53.1388 34.3965C54.3848 35.4608 55.4607 36.3805 55.4614 39C56.0076 38.8379 56.5256 38.6259 57 38.3618C56.8206 35.6602 55.5121 34.5385 54.242 33.4535Z" fill="#5C922C"/>
<path fill-rule="evenodd" clip-rule="evenodd" d="M40.3119 27.9541C40.0924 27.9849 39.8722 28 39.6519 28C38.4028 28 37.2321 27.5183 36.3571 26.6429C35.3192 25.6041 34.841 24.1619 35.0469 22.6873C35.0929 22.3539 35.3547 22.0919 35.6881 22.0453C37.1484 21.8428 38.6132 22.3268 39.6421 23.3572C40.6808 24.3952 41.159 25.8374 40.9531 27.3128C40.9071 27.6455 40.6453 27.9074 40.3119 27.9541Z" fill="#88C057"/>
<path fill-rule="evenodd" clip-rule="evenodd" d="M34.2904 28.1865C35.854 27.7358 37.5493 28.1138 39 29.2232C40.4514 28.1138 42.1467 27.7343 43.7096 28.1865C46.9712 29.1323 48.7573 33.4027 47.6918 37.7064C46.7738 41.4119 44.0844 44 41.1497 44H41.149C40.6994 44 40.2519 43.9368 39.8196 43.811C39.5404 43.7296 39.266 43.622 39 43.4889C38.734 43.622 38.4596 43.7296 38.1811 43.811C37.7481 43.9368 37.3006 44 36.8503 44C33.9163 44 31.2262 41.4119 30.3082 37.7064C29.2427 33.4027 31.0288 29.1323 34.2904 28.1865Z" fill="#ED7161"/>
<path fill-rule="evenodd" clip-rule="evenodd" d="M55.3672 35.8183C54.7199 35.2461 54.3635 34.4974 54.3635 33.7108V32.5213C54.3635 30.4237 52.8718 28.6127 50.8922 28.1983C51.1329 27.7389 51.618 27.4203 52.1816 27.4203C52.5838 27.4203 52.9089 27.1024 52.9089 26.7101C52.9089 26.3179 52.5838 26 52.1816 26C50.8209 26 49.6841 26.9209 49.3677 28.1561C47.2622 28.4583 45.6367 30.2287 45.6367 32.3684V33.7144C45.6367 34.4959 45.2876 35.2475 44.6789 35.7769C42.9966 37.2415 42.0199 39.3405 42.0003 41.5345C41.9719 44.6158 44.3523 47.3113 47.5386 47.8042C48.3764 47.9336 49.2048 48 49.9998 48H50.0005C52.2507 48 54.1759 47.4792 55.5687 46.494C57.1592 45.3702 58 43.6792 58 41.6052C58 39.4069 57.0407 37.2972 55.3672 35.8183Z" fill="#EEAF4B"/>
</g>
</svg>
