<?xml version="1.0" encoding="UTF-8"?>
<svg width="122px" height="65px" viewBox="0 0 122 65" version="1.1" xmlns="http://www.w3.org/2000/svg" xmlns:xlink="http://www.w3.org/1999/xlink">
    <title>Group 9</title>
    <g id="Page-1" stroke="none" stroke-width="1" fill="none" fill-rule="evenodd">
        <g id="1" transform="translate(-94.000000, -76.000000)">
            <g id="Group-9" transform="translate(94.715729, 76.594408)">
                <g id="Group" transform="translate(32.173359, 32.173359) rotate(-315.000000) translate(-32.173359, -32.173359) translate(9.173359, 9.673359)">
                    <g id="2" opacity="0.299269903" transform="translate(4.000000, 3.000000)" fill="#000000">
                        <path d="M2.61522369,16.7573593 L16.7573593,2.61522369 C19.1005051,0.272077939 22.8994949,0.272077939 25.2426407,2.61522369 L39.3847763,16.7573593 C41.7279221,19.1005051 41.7279221,22.8994949 39.3847763,25.2426407 L25.2426407,39.3847763 C22.8994949,41.7279221 19.1005051,41.7279221 16.7573593,39.3847763 L2.61522369,25.2426407 C0.272077939,22.8994949 0.272077939,19.1005051 2.61522369,16.7573593 Z"></path>
                    </g>
                    <path d="M2.39339828,16.2218254 L16.5355339,2.07968978 C18.8786797,-0.263455967 22.6776695,-0.263455967 25.0208153,2.07968978 L39.1629509,16.2218254 C41.5060967,18.5649712 41.5060967,22.363961 39.1629509,24.7071068 L25.0208153,38.8492424 C22.6776695,41.1923882 18.8786797,41.1923882 16.5355339,38.8492424 L2.39339828,24.7071068 C0.0502525317,22.363961 0.0502525317,18.5649712 2.39339828,16.2218254 Z" id="1" fill="#000000"></path>
                    <g id="Group-2" transform="translate(19.778175, 19.964466) rotate(-45.000000) translate(-19.778175, -19.964466) translate(13.778175, 12.464466)" fill="#FFFFFF">
                        <path d="M2.62135937,4.73009016 L1.94707072,4.73009016 C1.91231395,4.73009016 1.86078164,4.77843651 1.85878531,4.81037793 L1.36204322,12.8387982 L10.6428723,12.8370533 L10.1412051,4.81037793 C10.1392848,4.77965387 10.0864529,4.73009016 10.0529197,4.73009016 L9.37863102,4.73009016 L9.37863102,6.08154449 C9.37863102,6.4547383 9.07609766,6.75727165 8.70290385,6.75727165 C8.32971005,6.75727165 8.02717669,6.4547383 8.02717669,6.08154449 L8.02717669,4.73009016 L3.9728137,4.73009016 L3.9728137,6.08154449 C3.9728137,6.4547383 3.67028034,6.75727165 3.29708653,6.75727165 C2.92389272,6.75727165 2.62135937,6.4547383 2.62135937,6.08154449 L2.62135937,4.73009016 Z" id="Path" opacity="0.329589844"></path>
                        <path d="M5.99999519,-1.24344979e-14 C7.86501653,-1.24344979e-14 9.37863102,1.51380326 9.37863102,3.37703953 L10.0529197,3.37863583 C10.8001018,3.37863583 11.4435905,3.98308307 11.4900276,4.72607653 L11.9973246,12.8428298 C12.0438353,13.5870007 11.4783702,14.1902705 10.7334036,14.1902705 L1.26658674,14.1902705 C0.522031765,14.1902705 -0.0437713433,13.5858232 0.00266574759,12.8428298 L0.509962826,4.72607653 C0.55647351,3.98190558 1.19862511,3.37863583 1.94707072,3.37863583 L2.62135937,3.37863583 C2.62135937,1.51279284 4.13622116,-1.24344979e-14 5.99999519,-1.24344979e-14 Z M8.02717669,3.37863583 C8.02717669,2.26015316 7.11859118,1.35145433 5.99999519,1.35145433 C4.88219562,1.35145433 3.9728137,2.25959424 3.9728137,3.37703953 L8.02717669,3.37863583 Z M2.62135937,4.73009016 L1.94707072,4.73009016 C1.91231395,4.73009016 1.86078164,4.77843651 1.85878531,4.81037793 L1.36204322,12.8387982 L10.6428723,12.8370533 L10.1412051,4.81037793 C10.1392848,4.77965387 10.0864529,4.73009016 10.0529197,4.73009016 L9.37863102,4.73009016 L9.37863102,6.08154449 C9.37863102,6.4547383 9.07609766,6.75727165 8.70290385,6.75727165 C8.32971005,6.75727165 8.02717669,6.4547383 8.02717669,6.08154449 L8.02717669,4.73009016 L3.9728137,4.73009016 L3.9728137,6.08154449 C3.9728137,6.4547383 3.67028034,6.75727165 3.29708653,6.75727165 C2.92389272,6.75727165 2.62135937,6.4547383 2.62135937,6.08154449 L2.62135937,4.73009016 Z" id="Combined-Shape"></path>
                    </g>
                </g>
                <text id="Triggin" font-family="Avenir-Medium, Avenir" font-size="18" font-weight="400" fill="#C81834">
                    <tspan x="63.2842712" y="35.4055916">Triggin</tspan>
                </text>
            </g>
        </g>
    </g>
</svg>