<svg width="160" height="50" viewBox="0 0 160 50" fill="none" xmlns="http://www.w3.org/2000/svg">
<path d="M0 25C0 11.1929 11.1929 0 25 0H135C148.807 0 160 11.1929 160 25C160 38.8071 148.807 50 135 50H25C11.1929 50 0 38.8071 0 25Z" fill="url(#paint0_linear_3_6)"/>
<path d="M39.0547 24.9297C37.7682 24.5599 36.8307 24.1068 36.2422 23.5703C35.6589 23.0286 35.3672 22.362 35.3672 21.5703C35.3672 20.6745 35.724 19.9349 36.4375 19.3516C37.1562 18.763 38.0885 18.4688 39.2344 18.4688C40.0156 18.4688 40.7109 18.6198 41.3203 18.9219C41.9349 19.224 42.4089 19.6406 42.7422 20.1719C43.0807 20.7031 43.25 21.2839 43.25 21.9141H41.7422C41.7422 21.2266 41.5234 20.6875 41.0859 20.2969C40.6484 19.901 40.0312 19.7031 39.2344 19.7031C38.4948 19.7031 37.9167 19.8672 37.5 20.1953C37.0885 20.5182 36.8828 20.9688 36.8828 21.5469C36.8828 22.0104 37.0781 22.4036 37.4688 22.7266C37.8646 23.0443 38.5339 23.3359 39.4766 23.6016C40.4245 23.8672 41.1641 24.1615 41.6953 24.4844C42.2318 24.8021 42.6276 25.1745 42.8828 25.6016C43.1432 26.0286 43.2734 26.5312 43.2734 27.1094C43.2734 28.0312 42.9141 28.7708 42.1953 29.3281C41.4766 29.8802 40.5156 30.1562 39.3125 30.1562C38.5312 30.1562 37.8021 30.0078 37.125 29.7109C36.4479 29.4089 35.9245 28.9974 35.5547 28.4766C35.1901 27.9557 35.0078 27.3646 35.0078 26.7031H36.5156C36.5156 27.3906 36.7682 27.9349 37.2734 28.3359C37.7839 28.7318 38.4635 28.9297 39.3125 28.9297C40.1042 28.9297 40.7109 28.7682 41.1328 28.4453C41.5547 28.1224 41.7656 27.6823 41.7656 27.125C41.7656 26.5677 41.5703 26.138 41.1797 25.8359C40.7891 25.5286 40.0807 25.2266 39.0547 24.9297ZM46.9375 19.5V21.5469H48.5156V22.6641H46.9375V27.9062C46.9375 28.2448 47.0078 28.5 47.1484 28.6719C47.2891 28.8385 47.5286 28.9219 47.8672 28.9219C48.0339 28.9219 48.263 28.8906 48.5547 28.8281V30C48.1745 30.1042 47.8047 30.1562 47.4453 30.1562C46.7995 30.1562 46.3125 29.9609 45.9844 29.5703C45.6562 29.1797 45.4922 28.625 45.4922 27.9062V22.6641H43.9531V21.5469H45.4922V19.5H46.9375ZM55.4297 30C55.3464 29.8333 55.2786 29.5365 55.2266 29.1094C54.5547 29.8073 53.7526 30.1562 52.8203 30.1562C51.987 30.1562 51.3021 29.9219 50.7656 29.4531C50.2344 28.9792 49.9688 28.3802 49.9688 27.6562C49.9688 26.776 50.3021 26.0938 50.9688 25.6094C51.6406 25.1198 52.5833 24.875 53.7969 24.875H55.2031V24.2109C55.2031 23.7057 55.0521 23.3047 54.75 23.0078C54.4479 22.7057 54.0026 22.5547 53.4141 22.5547C52.8984 22.5547 52.4661 22.6849 52.1172 22.9453C51.7682 23.2057 51.5938 23.5208 51.5938 23.8906H50.1406C50.1406 23.4688 50.2891 23.0625 50.5859 22.6719C50.888 22.276 51.2943 21.9635 51.8047 21.7344C52.3203 21.5052 52.8854 21.3906 53.5 21.3906C54.474 21.3906 55.237 21.6354 55.7891 22.125C56.3411 22.6094 56.6276 23.2786 56.6484 24.1328V28.0234C56.6484 28.7995 56.7474 29.4167 56.9453 29.875V30H55.4297ZM53.0312 28.8984C53.4844 28.8984 53.9141 28.7812 54.3203 28.5469C54.7266 28.3125 55.0208 28.0078 55.2031 27.6328V25.8984H54.0703C52.2995 25.8984 51.4141 26.4167 51.4141 27.4531C51.4141 27.9062 51.5651 28.2604 51.8672 28.5156C52.1693 28.7708 52.5573 28.8984 53.0312 28.8984ZM63 22.8438C62.7812 22.8073 62.5443 22.7891 62.2891 22.7891C61.3411 22.7891 60.6979 23.1927 60.3594 24V30H58.9141V21.5469H60.3203L60.3438 22.5234C60.8177 21.7682 61.4896 21.3906 62.3594 21.3906C62.6406 21.3906 62.8542 21.4271 63 21.5V22.8438ZM66.6875 19.5V21.5469H68.2656V22.6641H66.6875V27.9062C66.6875 28.2448 66.7578 28.5 66.8984 28.6719C67.0391 28.8385 67.2786 28.9219 67.6172 28.9219C67.7839 28.9219 68.013 28.8906 68.3047 28.8281V30C67.9245 30.1042 67.5547 30.1562 67.1953 30.1562C66.5495 30.1562 66.0625 29.9609 65.7344 29.5703C65.4062 29.1797 65.2422 28.625 65.2422 27.9062V22.6641H63.7031V21.5469H65.2422V19.5H66.6875ZM80.5859 24.7422H75.6562V28.7734H81.3828V30H74.1562V18.625H81.3047V19.8594H75.6562V23.5156H80.5859V24.7422ZM85.8594 24.6328L87.7344 21.5469H89.4219L86.6562 25.7266L89.5078 30H87.8359L85.8828 26.8359L83.9297 30H82.25L85.1016 25.7266L82.3359 21.5469H84.0078L85.8594 24.6328ZM98.1016 25.8672C98.1016 27.1536 97.8073 28.1901 97.2188 28.9766C96.6302 29.763 95.8333 30.1562 94.8281 30.1562C93.8021 30.1562 92.9948 29.8307 92.4062 29.1797V33.25H90.9609V21.5469H92.2812L92.3516 22.4844C92.9401 21.7552 93.7578 21.3906 94.8047 21.3906C95.8203 21.3906 96.6224 21.7734 97.2109 22.5391C97.8047 23.3047 98.1016 24.3698 98.1016 25.7344V25.8672ZM96.6562 25.7031C96.6562 24.75 96.4531 23.9974 96.0469 23.4453C95.6406 22.8932 95.0833 22.6172 94.375 22.6172C93.5 22.6172 92.8438 23.0052 92.4062 23.7812V27.8203C92.8385 28.5911 93.5 28.9766 94.3906 28.9766C95.0833 28.9766 95.6328 28.7031 96.0391 28.1562C96.4505 27.6042 96.6562 26.7865 96.6562 25.7031ZM101.516 30H100.07V18H101.516V30ZM103.453 25.6953C103.453 24.8672 103.615 24.1224 103.938 23.4609C104.266 22.7995 104.719 22.2891 105.297 21.9297C105.88 21.5703 106.544 21.3906 107.289 21.3906C108.44 21.3906 109.37 21.7891 110.078 22.5859C110.792 23.3828 111.148 24.4427 111.148 25.7656V25.8672C111.148 26.6901 110.99 27.4297 110.672 28.0859C110.359 28.737 109.909 29.2448 109.32 29.6094C108.737 29.974 108.065 30.1562 107.305 30.1562C106.159 30.1562 105.229 29.7578 104.516 28.9609C103.807 28.1641 103.453 27.1094 103.453 25.7969V25.6953ZM104.906 25.8672C104.906 26.8047 105.122 27.5573 105.555 28.125C105.992 28.6927 106.576 28.9766 107.305 28.9766C108.039 28.9766 108.622 28.6901 109.055 28.1172C109.487 27.5391 109.703 26.7318 109.703 25.6953C109.703 24.7682 109.482 24.0182 109.039 23.4453C108.602 22.8672 108.018 22.5781 107.289 22.5781C106.576 22.5781 106 22.862 105.562 23.4297C105.125 23.9974 104.906 24.8099 104.906 25.8672ZM117.047 22.8438C116.828 22.8073 116.591 22.7891 116.336 22.7891C115.388 22.7891 114.745 23.1927 114.406 24V30H112.961V21.5469H114.367L114.391 22.5234C114.865 21.7682 115.536 21.3906 116.406 21.3906C116.688 21.3906 116.901 21.4271 117.047 21.5V22.8438ZM121.734 30.1562C120.589 30.1562 119.656 29.7812 118.938 29.0312C118.219 28.276 117.859 27.2682 117.859 26.0078V25.7422C117.859 24.9036 118.018 24.1562 118.336 23.5C118.659 22.8385 119.107 22.3229 119.68 21.9531C120.258 21.5781 120.883 21.3906 121.555 21.3906C122.654 21.3906 123.508 21.7526 124.117 22.4766C124.727 23.2005 125.031 24.237 125.031 25.5859V26.1875H119.305C119.326 27.0208 119.568 27.6953 120.031 28.2109C120.5 28.7214 121.094 28.9766 121.812 28.9766C122.323 28.9766 122.755 28.8724 123.109 28.6641C123.464 28.4557 123.773 28.1797 124.039 27.8359L124.922 28.5234C124.214 29.612 123.151 30.1562 121.734 30.1562ZM121.555 22.5781C120.971 22.5781 120.482 22.7917 120.086 23.2188C119.69 23.6406 119.445 24.2344 119.352 25H123.586V24.8906C123.544 24.1562 123.346 23.5885 122.992 23.1875C122.638 22.7812 122.159 22.5781 121.555 22.5781Z" fill="white"/>
<defs>
<linearGradient id="paint0_linear_3_6" x1="2.94298e-08" y1="26.25" x2="159.942" y2="29.4488" gradientUnits="userSpaceOnUse">
<stop stop-color="#F62A34"/>
<stop offset="1" stop-color="#960535"/>
</linearGradient>
</defs>
</svg>
