<svg width="96" height="80" viewBox="0 0 96 80" fill="none" xmlns="http://www.w3.org/2000/svg">
<g clip-path="url(#clip0_68_925)">
<path d="M4.45268 76.2316C5.78197 78.6968 8.60321 79.7551 8.60321 79.7551C8.60321 79.7551 9.26924 76.8164 7.93994 74.3512C6.61065 71.886 3.78941 70.8277 3.78941 70.8277C3.78941 70.8277 3.12338 73.7663 4.45268 76.2316Z" fill="#2F2E41"/>
<path d="M5.36668 75.4205C7.7666 76.8644 8.69089 79.7323 8.69089 79.7323C8.69089 79.7323 5.72413 80.2593 3.32421 78.8154C0.924286 77.3715 0 74.5036 0 74.5036C0 74.5036 2.96676 73.9767 5.36668 75.4205Z" fill="#F62A34"/>
<path d="M59.1735 3.84057H44.1997V4.05448H59.1735V3.84057Z" fill="#F2F2F2"/>
<path d="M55.1094 4.001H54.8955V5.97968H55.1094V4.001Z" fill="#F2F2F2"/>
<path d="M48.585 4.001H48.3711V5.97968H48.585V4.001Z" fill="#F2F2F2"/>
<path d="M66.7673 14.1083H51.7935V14.3222H66.7673V14.1083Z" fill="#F2F2F2"/>
<path d="M56.0718 12.1831H55.8579V14.1618H56.0718V12.1831Z" fill="#F2F2F2"/>
<path d="M62.5962 12.1831H62.3823V14.1618H62.5962V12.1831Z" fill="#F2F2F2"/>
<path d="M86.6613 18.9214H71.6875V19.1353H86.6613V18.9214Z" fill="#F2F2F2"/>
<path d="M75.9659 16.9962H75.752V18.9748H75.9659V16.9962Z" fill="#F2F2F2"/>
<path d="M82.4898 16.9962H82.2759V18.9748H82.4898V16.9962Z" fill="#F2F2F2"/>
<path d="M85.1638 68.549H70.1899V68.7629H85.1638V68.549Z" fill="#F2F2F2"/>
<path d="M74.4683 66.6237H74.2544V68.6024H74.4683V66.6237Z" fill="#F2F2F2"/>
<path d="M80.9927 66.6237H80.7788V68.6024H80.9927V66.6237Z" fill="#F2F2F2"/>
<path d="M59.6013 34.216H44.6274V34.4299H59.6013V34.216Z" fill="#F2F2F2"/>
<path d="M48.9058 32.2908H48.6919V34.2695H48.9058V32.2908Z" fill="#F2F2F2"/>
<path d="M55.4302 32.2908H55.2163V34.2695H55.4302V32.2908Z" fill="#F2F2F2"/>
<path d="M64.3074 59.9925H49.3335V60.2064H64.3074V59.9925Z" fill="#F2F2F2"/>
<path d="M53.6119 58.0673H53.3979V60.046H53.6119V58.0673Z" fill="#F2F2F2"/>
<path d="M60.1363 58.0673H59.9224V60.046H60.1363V58.0673Z" fill="#F2F2F2"/>
<path d="M88.2658 52.1846H73.292V52.3986H88.2658V52.1846Z" fill="#F2F2F2"/>
<path d="M77.5699 50.2594H77.356V52.2381H77.5699V50.2594Z" fill="#F2F2F2"/>
<path d="M84.0943 50.2594H83.8804V52.2381H84.0943V50.2594Z" fill="#F2F2F2"/>
<path d="M38.7241 75.1028H13.3984V74.9207H38.5418V66.084H15.5275L14.4095 63.7548L14.5738 63.676L15.6422 65.9017H38.7241V75.1028Z" fill="#2F2E41"/>
<path d="M16.77 79.5667C17.8266 79.5667 18.6831 78.7102 18.6831 77.6536C18.6831 76.597 17.8266 75.7405 16.77 75.7405C15.7135 75.7405 14.8569 76.597 14.8569 77.6536C14.8569 78.7102 15.7135 79.5667 16.77 79.5667Z" fill="#3F3D56"/>
<path d="M35.627 79.5667C36.6835 79.5667 37.5401 78.7102 37.5401 77.6536C37.5401 76.597 36.6835 75.7405 35.627 75.7405C34.5704 75.7405 33.7139 76.597 33.7139 77.6536C33.7139 78.7102 34.5704 79.5667 35.627 79.5667Z" fill="#3F3D56"/>
<path d="M57.8552 38.2074C58.5093 38.2074 59.0395 37.6772 59.0395 37.0231C59.0395 36.3691 58.5093 35.8388 57.8552 35.8388C57.2011 35.8388 56.6709 36.3691 56.6709 37.0231C56.6709 37.6772 57.2011 38.2074 57.8552 38.2074Z" fill="#3F3D56"/>
<path d="M41.4332 63.0776H12.967L6.80762 42.9446H47.7765L47.7392 43.0631L41.4332 63.0776ZM13.1018 62.8954H41.2996L47.5281 43.1268H7.05387L13.1018 62.8954Z" fill="#2F2E41"/>
<path d="M39.2113 62.03H14.2084L8.79834 44.1744H44.7827L44.75 44.2796L39.2113 62.03Z" fill="#F2F2F2"/>
<path d="M48.2865 41.146L48.1104 41.0992L49.3126 36.5676H56.3064V36.7498H49.4529L48.2865 41.146Z" fill="#2F2E41"/>
<path d="M45.729 49.0483H8.79785V49.2305H45.729V49.0483Z" fill="#2F2E41"/>
<path d="M43.6142 55.7608H10.8516V55.943H43.6142V55.7608Z" fill="#2F2E41"/>
<path d="M27.3829 43.0357H27.2007V62.9865H27.3829V43.0357Z" fill="#2F2E41"/>
<path d="M35.5398 43.03L34.2319 62.9804L34.4138 62.9923L35.7217 43.042L35.5398 43.03Z" fill="#2F2E41"/>
<path d="M19.0466 43.0297L18.8647 43.0416L20.165 62.9925L20.3469 62.9806L19.0466 43.0297Z" fill="#2F2E41"/>
<path d="M95.8325 79.6822H0V79.8961H95.8325V79.6822Z" fill="#2F2E41"/>
<path d="M63.6821 6.61803C63.6821 6.61803 65.2457 11.0681 64.2835 11.7527C63.3213 12.4373 67.5308 18.0284 67.5308 18.0284L72.5822 16.6591L69.816 11.9809C69.816 11.9809 69.4551 7.30265 69.4551 6.61803C69.4551 5.9334 63.6821 6.61803 63.6821 6.61803Z" fill="#A0616A"/>
<path opacity="0.1" d="M63.6821 6.61803C63.6821 6.61803 65.2457 11.0681 64.2835 11.7527C63.3213 12.4373 67.5308 18.0284 67.5308 18.0284L72.5822 16.6591L69.816 11.9809C69.816 11.9809 69.4551 7.30265 69.4551 6.61803C69.4551 5.9334 63.6821 6.61803 63.6821 6.61803Z" fill="black"/>
<path d="M61.0588 38.3388C61.0588 38.3388 60.6024 44.0439 61.0588 47.0106C61.5152 49.9773 62.1998 58.1928 62.1998 58.1928C62.1998 58.1928 62.1998 73.7108 64.7101 73.939C67.2204 74.1672 69.0461 74.3955 69.2743 73.4826C69.5025 72.5698 68.1332 72.1134 68.8179 71.657C69.5025 71.2006 69.7307 69.6031 68.8179 67.7775C67.905 65.9518 68.8179 47.467 68.8179 47.467L73.1538 59.1056C73.1538 59.1056 73.6102 68.6903 74.0666 70.0595C74.523 71.4288 73.6102 73.939 75.2077 74.1672C76.8051 74.3955 78.6308 73.0262 79.5436 72.5698C80.4564 72.1134 78.1744 72.1134 78.6308 71.8852C79.0872 71.657 80.4564 70.9723 80 70.7441C79.5436 70.5159 79.0872 59.562 79.0872 59.562C79.0872 59.562 77.832 36.1708 76.2346 35.258C74.6371 34.3451 73.6102 35.9174 73.6102 35.9174L61.0588 38.3388Z" fill="#2F2E41"/>
<path d="M65.1658 73.0263V74.852C65.1658 74.852 63.1119 79.8147 65.1658 79.8147C67.2196 79.8147 68.8171 80.3289 68.8171 79.6443V73.4828L65.1658 73.0263Z" fill="#2F2E41"/>
<path d="M78.6303 73.0231V74.8487C78.6303 74.8487 80.6842 79.8114 78.6303 79.8114C76.5765 79.8114 74.979 80.3257 74.979 79.6411V73.4795L78.6303 73.0231Z" fill="#2F2E41"/>
<path d="M66.8778 9.92701C69.1464 9.92701 70.9855 8.08792 70.9855 5.81928C70.9855 3.55065 69.1464 1.71156 66.8778 1.71156C64.6091 1.71156 62.77 3.55065 62.77 5.81928C62.77 8.08792 64.6091 9.92701 66.8778 9.92701Z" fill="#A0616A"/>
<path d="M65.6224 13.4642C65.6224 13.4642 66.7635 16.8873 68.5891 16.2027L70.4148 15.5181L73.6097 37.426C73.6097 37.426 71.0994 41.0773 67.4481 38.7952C63.7968 36.5132 65.6224 13.4642 65.6224 13.4642Z" fill="#F62A34"/>
<path d="M68.8174 12.7796L69.8443 10.6117C69.8443 10.6117 75.8918 13.4642 76.8046 14.3771C77.7175 15.2899 77.7175 16.6591 77.7175 16.6591L76.12 22.3643C76.12 22.3643 76.5764 34.9157 76.5764 35.3721C76.5764 35.8285 78.1739 38.3388 77.0328 37.426C75.8918 36.5132 75.6636 35.6003 74.7508 36.9696C73.8379 38.3388 71.7841 39.9363 71.7841 39.9363L68.8174 12.7796Z" fill="#3F3D56"/>
<path d="M76.8049 29.2105L76.1202 35.6003C76.1202 35.6003 72.0125 39.2516 72.9253 39.4798C73.8382 39.708 74.2946 38.7952 74.2946 38.7952C74.2946 38.7952 75.892 40.3927 76.8049 39.4798C77.7177 38.567 79.9998 29.8951 79.9998 29.8951L76.8049 29.2105Z" fill="#A0616A"/>
<path d="M66.9654 0.0138905C66.0547 -0.0186637 65.0802 -0.0347671 64.3124 0.455962C63.9591 0.702238 63.6493 1.00555 63.3955 1.35349C62.6478 2.29881 62.0016 3.48825 62.2794 4.66114L62.602 4.53532C62.602 4.8484 62.5324 5.15756 62.3982 5.44044C62.4437 5.30834 62.5958 5.52189 62.5551 5.65551L62.1997 6.82141C62.7839 6.60724 63.5106 7.04087 63.5996 7.6567C63.6402 6.3025 63.7807 4.74967 64.8792 3.95674C65.4332 3.55686 66.1343 3.43479 66.8089 3.32639C67.4312 3.22639 68.0835 3.13103 68.6796 3.3359C69.2757 3.54077 69.7833 4.15037 69.6481 4.766C69.923 4.67132 70.2304 4.86286 70.3662 5.11987C70.502 5.37687 70.5091 5.68005 70.5132 5.97071C70.8062 6.17776 71.1396 5.76662 71.259 5.42832C71.5393 4.63425 71.7884 3.78897 71.6374 2.96053C71.4864 2.13209 70.8113 1.34039 69.9692 1.33758C70.0715 1.22531 70.126 1.07769 70.1213 0.925933L69.4272 0.867289C69.6034 0.84234 69.7655 0.756905 69.8856 0.625617C69.607 0.932253 67.416 0.0299991 66.9654 0.0138905Z" fill="#2F2E41"/>
<path d="M66.7638 12.095C66.7638 12.095 64.906 10.2745 64.2375 10.386C63.5689 10.4975 62.6561 12.095 62.6561 12.095C62.6561 12.095 57.1791 13.9207 57.4073 15.7463C57.6355 17.572 60.1458 26.472 60.1458 26.472C60.1458 26.472 62.1997 37.1978 60.374 38.3388C58.5484 39.4798 69.0458 42.4465 69.2741 41.0773C69.5023 39.708 69.9587 26.0156 69.2741 23.9618C68.5894 21.9079 66.7638 12.095 66.7638 12.095Z" fill="#3F3D56"/>
<path d="M74.751 15.7463H77.5727C77.5727 15.7463 79.5433 24.4182 79.7715 25.331C79.9997 26.2438 80.4561 30.5798 80.2279 30.5798C79.9997 30.5798 75.4356 29.6669 75.4356 30.3516L74.751 15.7463Z" fill="#3F3D56"/>
<path d="M74.6553 37.2207H63.8528C62.7986 32.3713 62.7105 27.6859 63.8528 23.2094H74.6553C72.912 27.6054 72.8031 32.2587 74.6553 37.2207Z" fill="#F2F2F2"/>
<path d="M59.4604 31.2644L62.6553 32.6336C62.6553 32.6336 68.8169 33.5465 68.8169 31.0362C68.8169 28.5259 62.6553 29.8951 62.6553 29.8951L60.6013 29.2384L59.4604 31.2644Z" fill="#A0616A"/>
<path d="M60.1455 14.377L57.407 15.0616L55.3531 27.1566C55.3531 27.1566 54.6685 30.3515 55.8095 30.5797C56.9506 30.8079 60.1455 32.6336 60.1455 32.6336C60.1455 32.6336 60.6019 29.2105 61.5147 29.2105L59.2326 27.3848L60.6019 19.3976L60.1455 14.377Z" fill="#3F3D56"/>
<path d="M21.4182 37.7456H6.44434V37.9595H21.4182V37.7456Z" fill="#F2F2F2"/>
<path d="M10.7227 35.8204H10.5088V37.7991H10.7227V35.8204Z" fill="#F2F2F2"/>
<path d="M17.2471 35.8204H17.0332V37.7991H17.2471V35.8204Z" fill="#F2F2F2"/>
<path d="M26.6589 6.08664H11.6851V6.30055H26.6589V6.08664Z" fill="#F2F2F2"/>
<path d="M22.5948 6.24708H22.3809V8.22576H22.5948V6.24708Z" fill="#F2F2F2"/>
<path d="M16.0704 6.24708H15.8564V8.22576H16.0704V6.24708Z" fill="#F2F2F2"/>
<path d="M41.7399 27.157H26.7661V27.3709H41.7399V27.157Z" fill="#F2F2F2"/>
<path d="M37.6753 27.3174H37.4614V29.2961H37.6753V27.3174Z" fill="#F2F2F2"/>
<path d="M31.1514 27.3174H30.9375V29.2961H31.1514V27.3174Z" fill="#F2F2F2"/>
<path d="M16.2844 27.05H1.31055V27.2639H16.2844V27.05Z" fill="#F2F2F2"/>
<path d="M12.2198 27.2104H12.0059V29.1891H12.2198V27.2104Z" fill="#F2F2F2"/>
<path d="M5.69585 27.2104H5.48193V29.1891H5.69585V27.2104Z" fill="#F2F2F2"/>
<path d="M34.2531 16.3544H19.2793V16.5683H34.2531V16.3544Z" fill="#F2F2F2"/>
<path d="M23.5572 14.4292H23.3433V16.4079H23.5572V14.4292Z" fill="#F2F2F2"/>
<path d="M30.0816 14.4292H29.8677V16.4079H30.0816V14.4292Z" fill="#F2F2F2"/>
</g>
<defs>
<clipPath id="clip0_68_925">
<rect width="95.8325" height="80" fill="white"/>
</clipPath>
</defs>
</svg>
