<svg width="100" height="80" viewBox="0 0 100 80" fill="none" xmlns="http://www.w3.org/2000/svg">
<g clip-path="url(#clip0_68_730)">
<path d="M50.238 80C77.3322 80 99.2963 78.284 99.2963 76.1673C99.2963 74.0506 77.3322 72.3346 50.238 72.3346C23.1438 72.3346 1.17969 74.0506 1.17969 76.1673C1.17969 78.284 23.1438 80 50.238 80Z" fill="#3F3D56"/>
<path d="M91.9102 69.0472L92.37 72.4191L89.1514 72.7256L89.6112 68.5874L91.9102 69.0472Z" fill="#A0616A"/>
<path d="M76.7363 22.7603C76.7363 22.7603 77.0428 26.8985 77.0428 27.0518C77.0428 27.2051 74.897 37.7806 74.897 37.7806C74.897 37.7806 71.8317 43.6047 74.897 43.4515C77.9624 43.2982 77.0428 37.9338 77.0428 37.9338L80.2614 29.0443L78.882 22.7603L76.7363 22.7603Z" fill="#A0616A"/>
<path d="M81.7938 69.0472L81.334 72.4191L84.5526 72.7256L84.0928 68.5874L81.7938 69.0472Z" fill="#A0616A"/>
<path d="M78.269 37.474L77.5027 38.5469C77.5027 38.5469 77.0429 43.145 77.5027 44.6776C77.9625 46.2103 78.8821 53.2607 78.8821 53.7205C78.8821 54.1803 79.0354 54.4868 78.8821 54.6401C78.7288 54.7933 78.269 54.7933 78.5756 55.0999C78.8821 55.4064 78.8821 56.326 78.8821 56.326V57.0924L80.8746 68.4342C80.8746 68.4342 79.6484 69.8136 80.5681 69.8136C81.4877 69.8136 84.8596 69.8136 84.7063 68.2809L84.3997 68.1277C84.3997 68.1277 83.9399 58.012 84.0932 57.5522C84.2465 57.0924 84.0932 56.1728 84.0932 56.1728C84.0932 56.1728 83.7867 55.713 84.0932 55.5597C84.3997 55.4064 84.3997 54.1803 84.3997 54.1803L85.7792 44.8309C85.7792 44.8309 87.0053 51.1149 87.7716 51.728C88.538 52.3411 88.3847 53.8737 88.3847 53.8737L88.9978 67.3613C88.9978 67.3613 88.3847 68.894 88.9978 69.2005C89.6108 69.5071 92.2164 70.58 92.3697 69.0473C92.5229 67.5146 93.2893 54.1803 93.2893 53.5672C93.2893 52.9541 93.136 52.6476 93.2893 52.1878C93.4425 51.728 93.136 51.728 93.2893 51.728C93.4425 51.728 92.9827 51.2682 92.9827 50.9616V43.4515C92.9827 43.4515 93.136 41.9188 93.2893 41.6123C93.4425 41.3057 93.136 40.9992 93.2893 40.5394C93.4425 40.0796 92.9827 38.5469 92.9827 38.5469L86.0857 36.7077L78.269 37.474Z" fill="#2F2E41"/>
<path d="M83.6332 71.8061C83.6332 71.8061 84.3995 71.0397 83.3266 71.0397C82.6378 71.0538 81.9594 71.2103 81.3341 71.4995L80.5678 74.2584C80.5678 74.2584 77.4258 76.7873 80.951 76.4807C84.4761 76.1742 83.9397 76.4041 83.9397 76.4041C83.9397 76.4041 85.0126 76.0976 85.1658 75.791C85.3191 75.4845 84.8593 71.0397 84.8593 71.0397C84.8593 71.0397 84.3995 72.2659 83.6332 71.8061Z" fill="#2F2E41"/>
<path d="M90.2246 71.806C90.2246 71.806 89.4582 71.0397 90.5311 71.0397C91.2199 71.0537 91.8983 71.2103 92.5236 71.4995L93.2899 74.2583C93.2899 74.2583 96.4319 76.7872 92.9068 76.4807C89.3816 76.1742 89.4582 76.4041 89.4582 76.4041C89.4582 76.4041 88.3853 76.0975 88.2321 75.791C88.0788 75.4845 88.9984 71.0397 88.9984 71.0397C88.9984 71.0397 89.4582 72.2658 90.2246 71.806Z" fill="#2F2E41"/>
<path d="M80.2613 10.6521C82.4622 10.6521 84.2463 8.86802 84.2463 6.66718C84.2463 4.46634 82.4622 2.68221 80.2613 2.68221C78.0605 2.68221 76.2764 4.46634 76.2764 6.66718C76.2764 8.86802 78.0605 10.6521 80.2613 10.6521Z" fill="#A0616A"/>
<path d="M78.8828 9.57925C78.8828 9.57925 79.4959 12.6446 79.4959 13.1044C79.4959 13.5642 82.1014 14.9436 82.1014 14.9436L85.0135 11.2652C85.0135 11.2652 83.1743 8.65964 83.1743 8.04657L78.8828 9.57925Z" fill="#A0616A"/>
<path d="M81.1811 13.5642C81.1811 13.5642 79.8452 13.2087 79.4403 12.6201C79.4403 12.6201 75.2036 16.7829 75.2036 17.5492L78.5755 23.5266C78.5755 23.5266 78.5755 25.6724 78.882 25.8257C79.1886 25.9789 78.882 25.8257 78.882 26.4387C78.882 27.0518 77.9624 31.0368 78.269 31.6499C78.5755 32.2629 78.8821 31.8031 78.5755 32.7227C78.269 33.6423 77.5026 38.5469 77.5026 38.5469C77.5026 38.5469 80.2615 37.6273 84.2464 39.16C88.2314 40.6927 92.9827 38.5469 92.9827 38.5469C92.9827 38.5469 91.7566 35.7881 92.0631 34.8685C92.3696 33.9489 91.2968 32.2629 91.2968 32.2629L90.5304 18.1623C90.5304 18.1623 91.6033 11.8783 90.837 11.5717L89.3043 10.9587L84.396 10.3554C84.396 10.3554 83.1735 13.411 81.1811 13.5642Z" fill="#D0CDE1"/>
<path d="M76.7366 16.4763L75.2039 17.5492C75.2039 17.5492 74.4375 19.8482 75.2039 20.9211C75.9702 21.994 76.2768 23.5267 76.2768 23.5267L79.3421 23.2201L76.7366 16.4763Z" fill="#D0CDE1"/>
<path d="M77.2186 2.45573L76.5274 2.179C76.5274 2.179 77.9727 0.587785 79.9836 0.726154L79.418 0.103497C79.418 0.103497 80.8005 -0.449963 82.0573 1.00288C82.718 1.76661 83.4824 2.66433 83.9589 3.6756H84.6992L84.3902 4.3559L85.4716 5.0362L84.3617 4.914C84.4668 5.50132 84.4308 6.10522 84.2567 6.6759L84.2865 7.21361C84.2865 7.21361 82.9999 5.22305 82.9999 4.94632V5.63815C82.9999 5.63815 82.3087 5.0155 82.3087 4.60041L81.9316 5.08469L81.7431 4.32367L79.418 5.08469L79.7951 4.46204L78.3498 4.6696L78.9153 3.90858C78.9153 3.90858 77.2815 4.80796 77.2186 5.56898C77.1558 6.32999 76.3389 7.29856 76.3389 7.29856L75.9619 6.60673C75.9619 6.60673 75.3963 3.49348 77.2186 2.45573Z" fill="#2F2E41"/>
<path d="M78.1435 33.354H17.2378V76.1383H78.1435V33.354Z" fill="#F2F2F2"/>
<path d="M37.6575 49.6782H22.3647V76.3742H37.6575V49.6782Z" fill="#3F3D56"/>
<path d="M29.3128 51.2797H25.1934V55.1199H29.3128V51.2797Z" fill="#F2F2F2"/>
<path d="M34.8289 51.2797H30.7095V55.1199H34.8289V51.2797Z" fill="#F2F2F2"/>
<path d="M29.3128 56.5163H25.1934V60.4961H29.3128V56.5163Z" fill="#F2F2F2"/>
<path d="M34.8289 56.5163H30.7095V60.4961H34.8289V56.5163Z" fill="#F2F2F2"/>
<path d="M35.7121 65.7958C36.2491 65.7958 36.6845 65.3604 36.6845 64.8234C36.6845 64.2864 36.2491 63.851 35.7121 63.851C35.1751 63.851 34.7397 64.2864 34.7397 64.8234C34.7397 65.3604 35.1751 65.7958 35.7121 65.7958Z" fill="#F62A34"/>
<path d="M73.0161 47.144H42.7842V72.514H73.0161V47.144Z" fill="#3F3D56"/>
<path d="M84.5076 41.4087H10.8726L15.7822 31.144L16.8809 28.8457L18.3183 25.8401L19.4171 23.5418L20.6908 20.8794H78.7061L79.4583 23.5418L80.108 25.8401L80.9576 28.8457L81.6072 31.144L84.5076 41.4087Z" fill="#3F3D56"/>
<path d="M44.9055 57.6633H43.8447V64.2046H44.9055V57.6633Z" fill="#F62A34"/>
<path d="M44.9055 58.6356H43.8447V59.4312H44.9055V58.6356Z" fill="#F2F2F2"/>
<path d="M44.9055 62.4368H43.8447V63.2323H44.9055V62.4368Z" fill="#F2F2F2"/>
<path d="M48 57.6633H45.4365V64.2046H48V57.6633Z" fill="#F62A34"/>
<path d="M48 58.6356H45.4365V59.4312H48V58.6356Z" fill="#F2F2F2"/>
<path d="M48 62.4368H45.4365V63.2323H48V62.4368Z" fill="#F2F2F2"/>
<path d="M49.6794 57.6633H48.6187V64.2046H49.6794V57.6633Z" fill="#F62A34"/>
<path d="M49.6794 58.6356H48.6187V59.4312H49.6794V58.6356Z" fill="#F2F2F2"/>
<path d="M49.6794 62.4368H48.6187V63.2323H49.6794V62.4368Z" fill="#F2F2F2"/>
<path d="M51.2708 57.6633H50.21V64.2046H51.2708V57.6633Z" fill="#F62A34"/>
<path d="M51.2708 58.6356H50.21V59.4312H51.2708V58.6356Z" fill="#F2F2F2"/>
<path d="M51.2708 62.4368H50.21V63.2323H51.2708V62.4368Z" fill="#F2F2F2"/>
<path d="M52.2924 57.6864L51.2998 58.0606L53.6071 64.1815L54.5997 63.8074L52.2924 57.6864Z" fill="#F62A34"/>
<path d="M52.6357 58.5963L51.6431 58.9705L51.9237 59.7149L52.9163 59.3407L52.6357 58.5963Z" fill="#F2F2F2"/>
<path d="M53.9765 62.1531L52.9839 62.5273L53.2645 63.2717L54.2571 62.8975L53.9765 62.1531Z" fill="#F2F2F2"/>
<path d="M72.044 57.6633H69.4805V64.2046H72.044V57.6633Z" fill="#F62A34"/>
<path d="M72.044 58.6356H69.4805V59.4312H72.044V58.6356Z" fill="#F2F2F2"/>
<path d="M72.044 62.4368H69.4805V63.2323H72.044V62.4368Z" fill="#F2F2F2"/>
<path d="M68.8616 57.6633H67.8008V64.2046H68.8616V57.6633Z" fill="#F62A34"/>
<path d="M68.8616 58.6356H67.8008V59.4312H68.8616V58.6356Z" fill="#F2F2F2"/>
<path d="M68.8616 62.4368H67.8008V63.2323H68.8616V62.4368Z" fill="#F2F2F2"/>
<path d="M67.2702 57.6633H66.2095V64.2046H67.2702V57.6633Z" fill="#F62A34"/>
<path d="M67.2702 58.6356H66.2095V59.4312H67.2702V58.6356Z" fill="#F2F2F2"/>
<path d="M67.2702 62.4368H66.2095V63.2323H67.2702V62.4368Z" fill="#F2F2F2"/>
<path d="M65.1877 57.6864L62.8804 63.8074L63.873 64.1815L66.1803 58.0606L65.1877 57.6864Z" fill="#F62A34"/>
<path d="M64.8446 58.5962L64.564 59.3407L65.5565 59.7149L65.8372 58.9704L64.8446 58.5962Z" fill="#F2F2F2"/>
<path d="M63.5038 62.1531L63.2231 62.8975L64.2157 63.2716L64.4963 62.5272L63.5038 62.1531Z" fill="#F2F2F2"/>
<path d="M73.0161 64.2047H42.7842V64.8234H73.0161V64.2047Z" fill="#F2F2F2"/>
<path d="M61.5251 57.6633H55.9561V64.2046H61.5251V57.6633Z" fill="#F62A34"/>
<path d="M60.1539 59.0776H57.3252V60.3152H60.1539V59.0776Z" fill="#F2F2F2"/>
<path d="M58.1656 47.144H57.6353V52.8014H58.1656V47.144Z" fill="#F2F2F2"/>
<path d="M57.9006 53.6854C58.3888 53.6854 58.7845 53.2896 58.7845 52.8014C58.7845 52.3132 58.3888 51.9174 57.9006 51.9174C57.4124 51.9174 57.0166 52.3132 57.0166 52.8014C57.0166 53.2896 57.4124 53.6854 57.9006 53.6854Z" fill="#F2F2F2"/>
<path d="M80.1085 25.8402H18.3188L19.4176 23.5419H79.4588L80.1085 25.8402Z" fill="#F62A34"/>
<path d="M81.6073 31.144H15.7822L16.881 28.8457H80.9576L81.6073 31.144Z" fill="#F62A34"/>
<path d="M88.0782 17.8557C88.0782 17.8557 87.1906 20.138 87.376 22.3961C87.4099 22.8004 87.5461 23.1894 87.7716 23.5267L76.8981 28.6889C76.8981 28.6889 71.985 29.1976 73.2111 31.3433C74.4373 33.4891 78.8821 30.2705 78.8821 30.2705C78.8821 30.2705 90.5305 28.5845 91.4501 26.8986C92.3697 25.2126 92.9828 18.1623 92.9828 18.1623L88.0782 17.8557Z" fill="#A0616A"/>
<path d="M88.5377 11.5717H90.8367C90.8367 11.5717 92.5227 11.8783 92.9825 14.9436C93.4423 18.009 93.9021 18.7753 93.4423 18.7753C92.9825 18.7753 87.4648 18.6221 87.4648 18.4688C87.4648 18.3155 88.5377 11.5717 88.5377 11.5717Z" fill="#D0CDE1"/>
<path d="M11.7929 57.3577C18.3059 57.3577 23.5857 52.0779 23.5857 45.5649C23.5857 39.0518 18.3059 33.772 11.7929 33.772C5.27985 33.772 0 39.0518 0 45.5649C0 52.0779 5.27985 57.3577 11.7929 57.3577Z" fill="#F62A34"/>
<path opacity="0.1" d="M11.7927 55.7067C17.3939 55.7067 21.9346 51.1661 21.9346 45.5649C21.9346 39.9637 17.3939 35.423 11.7927 35.423C6.19155 35.423 1.65088 39.9637 1.65088 45.5649C1.65088 51.1661 6.19155 55.7067 11.7927 55.7067Z" fill="black"/>
<path d="M11.3072 51.5495V50.0734C10.5611 50.0588 9.78912 49.7956 9.33887 49.4303L9.64761 48.4511C10.1827 48.8521 10.8316 49.0722 11.5002 49.0795C12.4136 49.0795 13.0312 48.4803 13.0312 47.6472C13.0312 46.8434 12.5294 46.3465 11.5774 45.908C10.2651 45.3235 9.45464 44.6511 9.45464 43.3797C9.45464 42.1666 10.2137 41.2458 11.3973 41.0266V39.5505H12.1949V40.9682C12.7897 40.9763 13.3699 41.1537 13.8674 41.4797L13.5458 42.4443C13.0685 42.1176 12.5031 41.9443 11.9248 41.9474C10.9342 41.9474 10.5611 42.6196 10.5611 43.2043C10.5611 43.9642 11.0371 44.3442 12.1564 44.8704C13.4814 45.4842 14.1505 46.2442 14.1505 47.5449C14.1505 48.6995 13.4429 49.7811 12.1177 50.0294V51.5495H11.3072Z" fill="#F2F2F2"/>
</g>
<defs>
<clipPath id="clip0_68_730">
<rect width="99.2959" height="80" fill="white"/>
</clipPath>
</defs>
</svg>
